<svg width="98" height="94" viewBox="0 0 98 94" fill="none" xmlns="http://www.w3.org/2000/svg">
  <path
    d="M78.7323 43.6032L78.1515 44.2251C77.8581 44.5419 77.9188 44.7531 78.3333 44.8587L88.248 47.3813C88.468 47.4381 88.6624 47.5675 88.7998 47.7485C88.9371 47.9295 89.0094 48.1515 89.0048 48.3787C88.8014 57.3469 88.6254 64.4612 88.4768 69.7216C88.3595 73.7892 86.443 76.7636 82.7275 78.6448C72.3787 83.8818 65.2213 87.4917 61.2555 89.4747C58.4043 90.8983 55.5433 90.9922 52.6725 89.7563C47.8814 87.6951 34.173 81.6622 11.5472 71.6576C9.77155 70.8715 8.34791 69.53 7.27627 67.6331C6.67396 66.5653 6.25547 64.7741 6.0208 62.2592C5.86436 60.5422 5.35396 54.8359 4.4896 45.1403C4.43876 44.5575 4.3312 43.8868 4.16693 43.128C4.10862 42.8579 4.15111 42.576 4.28633 42.3359C4.42154 42.0957 4.64004 41.9141 4.90027 41.8256C7.43858 40.9534 9.98667 40.1067 12.5445 39.2853C13.1019 39.1035 13.9408 38.7163 14.416 38.1883C16.5593 35.8338 19.0468 33.9408 21.8784 32.5093C23.2629 31.8112 24.4715 31.8171 25.68 32.6912C26.0789 32.9787 26.3547 33.1547 26.8885 33.0667C30.6823 32.437 34.482 32.4585 38.2875 33.1312C38.3666 33.1455 38.4481 33.1293 38.5157 33.0857C38.5832 33.0421 38.6316 32.9745 38.6512 32.8965L38.6923 32.7323C38.6978 32.709 38.6941 32.6845 38.6821 32.6637C38.6701 32.643 38.6507 32.6277 38.6277 32.6208L34.6971 31.6176C34.3619 31.531 34.0723 31.319 33.8875 31.0251L21.5968 11.2016C21.479 11.0094 21.4211 10.7866 21.4305 10.5619C21.4399 10.3372 21.5162 10.1207 21.6496 9.94028C24.3131 6.33033 27.6668 3.63753 31.7109 1.86188C33.4944 1.07575 35.3756 0.633793 37.3547 0.536015C38.6532 0.473437 40.5403 0.690505 43.016 1.18722C65.896 5.76322 80.7445 8.73175 87.5616 10.0928C90.1664 10.613 92.3781 12.2713 94.1968 15.0677C100.269 24.4075 95.6635 36.7099 90.1312 45.24C90.022 45.4091 89.8625 45.5397 89.6751 45.6133C89.4878 45.687 89.2821 45.7001 89.0869 45.6507L79.8059 43.2864C79.3874 43.1808 79.0295 43.2864 78.7323 43.6032ZM24.9584 9.89921L66.5883 17.1035C66.7829 17.1385 66.9831 17.1304 67.1746 17.0797C67.3662 17.0291 67.5445 16.9371 67.6971 16.8101C70.8807 14.1701 74.4359 12.0953 78.3627 10.5856C78.3791 10.5787 78.3932 10.5665 78.4028 10.5511C78.4123 10.5357 78.4168 10.5179 78.4155 10.5004C78.4141 10.483 78.4071 10.4669 78.3954 10.4548C78.3837 10.4426 78.3681 10.4349 78.3509 10.4331C69.9303 8.77086 58.2302 6.43593 43.2507 3.42828C40.4777 2.86899 38.4283 2.64019 37.1024 2.74188C32.3445 3.09975 27.9152 5.96855 24.8235 9.50615C24.6357 9.72126 24.6807 9.85228 24.9584 9.89921ZM69.4219 18.928L88.9109 42.4181C88.9428 42.4572 88.9836 42.4879 89.0299 42.5077C89.0763 42.5275 89.1267 42.5357 89.1769 42.5317C89.2271 42.5276 89.2756 42.5115 89.3182 42.4845C89.3608 42.4576 89.3962 42.4207 89.4213 42.3771C92.8709 36.4811 95.3936 29.9397 94.8128 23.1051C94.5195 19.6613 92.7184 15.3376 89.6736 13.384C83.3728 9.35362 74.6021 13.8123 69.4747 18.2416C69.2322 18.4528 69.2146 18.6816 69.4219 18.928ZM25.0053 12.6331L34.9904 28.7371C35.055 28.8419 35.1573 28.9179 35.2762 28.9496C35.3952 28.9812 35.5217 28.9661 35.6299 28.9072C39.3102 26.9282 42.49 24.5013 45.1691 21.6267C46.5301 20.1639 47.5803 18.5154 48.3195 16.6811C48.3449 16.6166 48.3557 16.5473 48.3511 16.4782C48.3465 16.409 48.3267 16.3418 48.293 16.2812C48.2594 16.2206 48.2127 16.1682 48.1565 16.1278C48.1002 16.0874 48.0356 16.06 47.9675 16.0475L25.3397 12.1344C24.8587 12.0484 24.7472 12.2146 25.0053 12.6331ZM38.2053 29.9397C38.1741 29.9599 38.1496 29.9886 38.1348 30.0225C38.1199 30.0564 38.1153 30.0941 38.1215 30.1312C38.1277 30.1682 38.1444 30.203 38.1696 30.2315C38.1949 30.2599 38.2276 30.2808 38.264 30.2917C40.8844 31.0192 43.7356 31.7662 46.8176 32.5328C47.5255 32.7088 48.3136 32.6756 49.1819 32.4331C52.346 31.5531 55.866 31.4025 59.7419 31.9813C62.7925 32.4331 66.3888 33.8763 66.5413 37.4667C66.5445 37.5281 66.5673 37.5869 66.6064 37.6344C66.6454 37.682 66.6987 37.7157 66.7584 37.7307L85.3733 42.4768C86.0148 42.6411 86.1243 42.467 85.7019 41.9547C79.2329 34.1716 73.7534 27.5481 69.2635 22.0843C69.2478 22.0686 68.9858 21.7166 68.4773 21.0283C67.6443 19.898 66.5707 19.2272 65.2565 19.016C61.056 18.3316 56.3431 17.5239 51.1179 16.5931C51.001 16.5713 50.8801 16.5911 50.7762 16.6489C50.6723 16.7068 50.5919 16.7991 50.5488 16.9099C48.9452 20.9501 46.1977 24.3508 42.3061 27.112C40.8043 28.1758 39.4373 29.1184 38.2053 29.9397ZM42.7168 35.0731C43.0805 35.5385 43.4267 35.8651 43.7552 36.0528C44.0955 36.2484 44.3634 36.176 44.5589 35.8358L45.216 34.7035C45.3412 34.4845 45.2825 34.3417 45.04 34.2752C43.4677 33.8528 42.3609 33.5869 41.7195 33.4773C40.421 33.2622 40.3349 33.495 41.4613 34.1755C42.1614 34.5979 42.5799 34.8971 42.7168 35.0731ZM64.2181 36.7392C64.2181 36.3502 63.9917 35.9649 63.5518 35.6054C63.112 35.246 62.4672 34.9194 61.6544 34.6443C60.8416 34.3692 59.8767 34.151 58.8147 34.0021C57.7527 33.8532 56.6145 33.7766 55.4651 33.7766C54.3156 33.7766 53.1774 33.8532 52.1154 34.0021C51.0534 34.151 50.0885 34.3692 49.2757 34.6443C48.4629 34.9194 47.8182 35.246 47.3783 35.6054C46.9384 35.9649 46.712 36.3502 46.712 36.7392C46.712 37.525 47.6342 38.2785 49.2757 38.8341C50.9172 39.3897 53.1436 39.7019 55.4651 39.7019C57.7865 39.7019 60.0129 39.3897 61.6544 38.8341C63.2959 38.2785 64.2181 37.525 64.2181 36.7392ZM12.9493 44.1371L15.12 44.8352C15.3195 44.9017 15.5033 44.8724 15.6715 44.7472C18.8825 42.3614 21.4795 39.4907 23.4624 36.135C23.787 35.5835 23.9552 35.0574 23.9669 34.5568C23.9708 34.3417 23.8672 34.2381 23.656 34.2459C23.1006 34.2654 22.1385 34.7309 20.7696 35.6422C17.5508 37.7894 14.8951 40.4802 12.8027 43.7147C12.6697 43.922 12.7186 44.0628 12.9493 44.1371ZM28.6133 35.1611V38.0475C28.6133 38.1408 28.6504 38.2304 28.7164 38.2964C28.7824 38.3624 28.872 38.3995 28.9653 38.3995H31.5173C34.0208 38.3995 36.4218 38.2147 38.192 37.8857C39.9623 37.5567 40.9568 37.1106 40.9568 36.6454V36.5632C40.9568 36.098 39.9623 35.6518 38.192 35.3229C36.4218 34.9939 34.0208 34.8091 31.5173 34.8091H28.9653C28.872 34.8091 28.7824 34.8462 28.7164 34.9122C28.6504 34.9782 28.6133 35.0677 28.6133 35.1611ZM19.4437 46.1611C19.5298 46.1845 19.606 46.1689 19.6725 46.1141C22.5042 43.8418 24.7961 41.0434 26.5483 37.7189C26.6378 37.5474 26.681 37.3554 26.6738 37.162C26.6666 36.9687 26.6092 36.7805 26.5072 36.616L26.3723 36.3931C26.1689 36.0645 25.9753 36.0724 25.7915 36.4165C23.9689 39.8466 21.3856 42.9266 18.0416 45.6565C18.0283 45.6663 18.0183 45.6795 18.0127 45.6949C18.0071 45.7102 18.006 45.727 18.0097 45.7435C18.0133 45.7599 18.0215 45.7753 18.0334 45.7879C18.0452 45.8005 18.0603 45.8099 18.0768 45.815L19.4437 46.1611ZM43.3915 41.5616L44.16 41.632C44.1816 41.6345 44.2035 41.6326 44.2243 41.6265C44.2452 41.6204 44.2646 41.6103 44.2816 41.5967C44.2985 41.583 44.3125 41.5661 44.3229 41.547C44.3332 41.5279 44.3397 41.507 44.3419 41.4853L44.3477 41.3973C44.4057 40.7838 44.4098 40.1905 44.3592 39.7474C44.3087 39.3042 44.2075 39.0474 44.0779 39.0331L43.9605 39.0214C43.8305 39.0087 43.6826 39.2408 43.5495 39.6666C43.4164 40.0924 43.3089 40.6769 43.2507 41.2917L43.2389 41.3797C43.2365 41.4018 43.2386 41.4241 43.245 41.4453C43.2514 41.4666 43.2621 41.4863 43.2764 41.5033C43.2906 41.5203 43.3082 41.5342 43.3279 41.5442C43.3477 41.5542 43.3693 41.5602 43.3915 41.5616ZM34.8144 41.9547C36.946 41.7982 38.8409 41.3993 40.4992 40.7579C40.8434 40.6249 41.0722 40.3844 41.1856 40.0363L41.2619 39.8016C41.4105 39.344 41.2599 39.2013 40.8101 39.3734C37.6382 40.5897 33.4357 40.9261 28.2027 40.3824C27.6434 40.3238 27.266 40.6347 27.0704 41.3152C27.0156 41.5029 27.0841 41.6125 27.2757 41.6438C29.6967 42.0466 32.2096 42.1502 34.8144 41.9547ZM66.3419 40.8517C65.7474 40.7305 65.102 40.7403 64.4059 40.8811C64.4489 40.7168 64.4606 40.5702 64.4411 40.4411C64.4059 40.2103 64.2807 40.1438 64.0656 40.2416L61.1264 41.5499C60.1252 42.293 59.5991 43.0068 59.5483 43.6912L54.0043 43.8203C53.7852 43.351 53.4684 43.0068 53.0539 42.7877C52.6197 42.5609 52.2032 42.5726 51.8043 42.8229C51.3623 43.0967 51.0455 43.5524 50.8539 44.1899L47.8677 47.0821C47.7113 47.2308 47.7406 47.307 47.9557 47.3109L54.5029 47.352L53.4235 49.5051L46.5829 49.5227C46.5431 49.5229 46.5039 49.5328 46.4687 49.5515C46.4335 49.5701 46.4034 49.5971 46.3809 49.6299C46.3584 49.6628 46.3442 49.7007 46.3396 49.7402C46.3349 49.7798 46.3399 49.8199 46.3541 49.8571L48.384 55.3014C48.4505 55.4852 48.5776 55.6084 48.7653 55.671L52.4789 56.8678C52.6667 56.9264 52.7977 56.8638 52.872 56.68L55.6293 49.6166C56.3959 49.9998 57.0999 50.1348 57.7413 50.0213L55.5355 56.0933C54.8549 57.9629 55.1502 58.131 56.4213 56.5979L61.2437 50.7664L62.4405 52.5792L62.0827 53.1541C61.9732 53.3301 62.022 53.4338 62.2293 53.4651C65.632 53.9696 68.933 53.6685 72.1323 52.5616C73.5755 52.0649 74.3127 51.1966 74.344 49.9568C74.3479 49.7261 74.2404 49.642 74.0213 49.7045L69.2693 51.0656C69.2341 50.3421 69.0855 49.6478 68.8235 48.9829C70.2784 48.8187 73.2704 48.0208 74.1152 46.7477C74.1951 46.6272 74.2492 46.4915 74.2742 46.3492C74.2992 46.2068 74.2944 46.061 74.2602 45.9209C74.226 45.7809 74.1631 45.6496 74.0756 45.5354C73.988 45.4212 73.8776 45.3266 73.7515 45.2576C72.0775 44.3463 70.4172 43.7538 68.7707 43.48L69.3808 41.2741C69.5177 41.2507 69.6213 41.1764 69.6917 41.0512C69.7149 41.0105 69.7288 40.965 69.7323 40.9183C69.7359 40.8715 69.729 40.8245 69.7121 40.7807C69.6953 40.7369 69.6689 40.6975 69.635 40.6651C69.601 40.6327 69.5603 40.6083 69.5157 40.5936C68.6553 40.2964 67.7264 40.1243 66.7291 40.0774C66.4553 40.0656 66.3262 40.3237 66.3419 40.8517ZM50.4843 41.3915L46.9056 40.1477C46.7257 40.0852 46.6357 40.1419 46.6357 40.3179V41.2272C46.6357 41.4384 46.7433 41.5479 46.9584 41.5557L50.4432 41.6496C50.4901 41.6496 50.5136 41.6281 50.5136 41.5851V41.4267C50.5136 41.411 50.5038 41.3993 50.4843 41.3915ZM76.5851 42.6646C76.6711 42.512 76.63 42.4142 76.4619 42.3712L72.0795 41.2565C71.97 41.2292 71.9015 41.2683 71.8741 41.3739L71.8155 41.5968C71.7881 41.7142 71.8252 41.8022 71.9269 41.8608L75.3237 43.8203C75.6171 43.9924 75.8498 43.9298 76.0219 43.6326L76.5851 42.6646ZM9.38827 42.6997C9.38061 42.7033 9.37404 42.7088 9.36924 42.7157C9.36444 42.7226 9.36159 42.7307 9.36099 42.7391C9.36039 42.7475 9.36206 42.7559 9.36583 42.7634C9.3696 42.7709 9.37532 42.7773 9.3824 42.7819C9.9456 43.1261 10.4501 43.0733 10.896 42.6235C10.9781 42.5413 11.0036 42.4553 10.9723 42.3653C10.9253 42.2128 10.8256 42.1639 10.6731 42.2187L9.38827 42.6997ZM24.7413 44.3307C24.6005 44.5693 24.6631 44.7277 24.9291 44.8059C28.848 45.9323 32.8803 46.167 37.0261 45.5099C37.2028 45.4813 37.3689 45.4073 37.5078 45.2951C37.6468 45.1829 37.7537 45.0365 37.8181 44.8704L38.0587 44.2485C38.2112 43.8535 38.0802 43.6932 37.6656 43.7675C33.6997 44.4793 29.7163 44.3991 25.7152 43.527C25.4101 43.4605 25.1813 43.5621 25.0288 43.832L24.7413 44.3307ZM42.5349 43.7616C42.5073 43.7625 42.4802 43.7709 42.4569 43.7859C42.4336 43.801 42.415 43.8221 42.4034 43.8466C42.3917 43.8712 42.3874 43.8984 42.3909 43.9249C42.3945 43.9513 42.4058 43.9761 42.4235 43.9963L44.5648 46.5776C44.5952 46.6137 44.6325 46.6433 44.6746 46.6647C44.7166 46.6861 44.7625 46.6988 44.8096 46.7021C44.8567 46.7054 44.9039 46.6992 44.9485 46.6838C44.9932 46.6685 45.0342 46.6443 45.0693 46.6128L47.8501 44.0608C48.0652 43.8613 48.0261 43.7616 47.7328 43.7616H42.5349ZM35.8528 69.4048C35.6181 69.8937 35.2016 70.0306 34.6032 69.8155C32.7532 69.1506 29.0944 67.7387 23.6267 65.5798C23.4794 65.522 23.3516 65.423 23.2581 65.2942C23.1646 65.1654 23.1093 65.0121 23.0987 64.8523L22.1659 49.6635C22.1541 49.4718 22.0564 49.3447 21.8725 49.2822L6.92427 44.4656C6.6896 44.3874 6.58204 44.4734 6.6016 44.7238C7.17653 51.1262 7.70844 56.9342 8.19733 62.1478C8.3968 64.2715 8.71556 65.7518 9.1536 66.5888C9.88498 67.9968 11.074 69.0646 12.7205 69.792C26.206 75.7604 40.1237 81.9184 54.4736 88.2661C55.0994 88.5438 55.4964 88.3541 55.6645 87.6971C55.6763 87.6541 55.6919 87.1906 55.7115 86.3067C55.9227 77.4206 56.0928 68.8807 56.2219 60.687C56.2258 60.4679 56.1221 60.3232 55.9109 60.2528L36.4043 53.9638C36.0875 53.8621 35.9291 53.9774 35.9291 54.3099V69.0704C35.929 69.1864 35.9029 69.3007 35.8528 69.4048ZM39.6251 46.0555C39.3748 46.5796 39.2398 46.8807 39.2203 46.959C39.1499 47.2406 39.2105 47.3794 39.4021 47.3755L42.136 47.352C42.1477 47.352 42.1653 47.3364 42.1888 47.3051C42.1966 47.2973 42.2025 47.2875 42.2064 47.2757C42.2103 47.2679 42.2142 47.2581 42.2181 47.2464C42.226 47.2073 42.226 47.1838 42.2181 47.176L40.5051 45.0464C40.3877 44.8939 40.243 44.935 40.0709 45.1696C40.024 45.2361 39.8754 45.5314 39.6251 46.0555ZM36.0464 47.8331C31.6073 48.3337 27.526 47.9719 23.8027 46.7477C23.6775 46.7047 23.5993 46.7477 23.568 46.8768L23.5269 47.0294C23.4839 47.2054 23.5426 47.3305 23.7029 47.4048C27.6844 49.2704 31.8283 49.8805 36.1344 49.2352C36.24 49.2196 36.2889 49.1609 36.2811 49.0592L36.2165 47.968C36.2152 47.9481 36.2096 47.9288 36.2002 47.9111C36.1908 47.8934 36.1778 47.8778 36.1619 47.8652C36.146 47.8525 36.1275 47.8432 36.1077 47.8377C36.0878 47.8321 36.067 47.8306 36.0464 47.8331ZM76.8843 46.7008C76.8321 46.6871 76.7775 46.6857 76.7247 46.6968C76.6719 46.708 76.6225 46.7313 76.5803 46.7649C76.5381 46.7985 76.5044 46.8415 76.4818 46.8905C76.4592 46.9395 76.4483 46.993 76.4501 47.047L76.5851 50.9131C76.5868 50.9672 76.6011 51.0201 76.627 51.0677C76.6528 51.1152 76.6895 51.156 76.734 51.1868C76.7785 51.2176 76.8296 51.2376 76.8832 51.2451C76.9368 51.2525 76.9914 51.2473 77.0427 51.2299L83.3376 49.0768C83.4082 49.053 83.4692 49.007 83.5116 48.9457C83.554 48.8844 83.5755 48.8111 83.5728 48.7366C83.5702 48.6621 83.5436 48.5905 83.497 48.5323C83.4504 48.4742 83.3863 48.4327 83.3141 48.4139L76.8843 46.7008ZM44.2597 54.2512C44.8112 54.4311 45.2004 54.5367 45.4272 54.568C45.6697 54.6032 45.7479 54.5054 45.6619 54.2747L43.9723 49.728C43.9566 49.6851 43.9273 49.648 43.8885 49.6218C43.8497 49.5956 43.8032 49.5814 43.7552 49.5814H39.8304C39.8163 49.5822 39.8025 49.5867 39.7907 49.5943C39.7788 49.602 39.7693 49.6125 39.7632 49.6247C39.7571 49.6369 39.7546 49.6503 39.7561 49.6634C39.7577 49.6764 39.7631 49.6887 39.7717 49.6987C41.0428 51.2749 42.1184 52.5655 42.9984 53.5707C43.3093 53.9285 43.7435 54.087 44.2597 54.2512ZM24.624 50.1504C24.5929 50.1408 24.56 50.1388 24.528 50.1448C24.4961 50.1508 24.4661 50.1645 24.4406 50.1848C24.4152 50.205 24.395 50.2312 24.382 50.261C24.369 50.2908 24.3634 50.3233 24.3659 50.3557L25.1989 63.7728C25.2005 63.8108 25.213 63.8476 25.2348 63.8788C25.2566 63.91 25.2869 63.9343 25.3221 63.9488L33.5472 67.1344C33.5775 67.1458 33.6101 67.1497 33.6422 67.1457C33.6743 67.1417 33.7049 67.13 33.7315 67.1115C33.7581 67.093 33.7797 67.0684 33.7946 67.0397C33.8095 67.011 33.8172 66.979 33.8171 66.9467V53.2656C33.8177 53.2225 33.8043 53.1802 33.7789 53.1453C33.7535 53.1104 33.7175 53.0847 33.6763 53.072L24.624 50.1504ZM73.7339 54.8086C73.0924 53.5922 72.2574 53.2206 71.2288 53.6939C70.2745 54.1319 69.9792 54.9044 70.3429 56.0112L61.8891 59.144C60.837 58.8311 60.0254 59.1538 59.4544 60.112C58.7387 60.0025 58.371 60.423 58.3515 61.3734C58.1755 70.8969 58.0073 79.8084 57.8469 88.1078C57.8466 88.1423 57.8548 88.1764 57.8708 88.2071C57.8868 88.2379 57.9101 88.2644 57.9388 88.2845C57.9674 88.3046 58.0007 88.3176 58.0357 88.3226C58.0708 88.3276 58.1066 88.3243 58.1403 88.3131C59.5365 87.8164 60.5651 87.4018 61.2261 87.0694C68.4226 83.4359 74.8133 80.2464 80.3984 77.5008C82.1154 76.6599 83.3298 75.8758 84.0416 75.1483C85.4535 73.7129 86.2084 72.0174 86.3061 70.0619C86.4939 66.272 86.662 59.6838 86.8107 50.2971C86.812 50.2671 86.8057 50.2374 86.7922 50.2105C86.7788 50.1836 86.7588 50.1605 86.7338 50.143C86.7088 50.1256 86.6798 50.1145 86.6492 50.1107C86.6186 50.1068 86.5874 50.1104 86.5584 50.1211L73.7339 54.8086ZM37.648 52.0571C38.3324 52.2409 38.6884 52.3348 38.7157 52.3387C38.9387 52.37 38.9895 52.2976 38.8683 52.1216C38.4889 51.5741 38.1604 51.2631 37.8827 51.1888C37.605 51.1145 37.165 51.2201 36.5627 51.5056C36.371 51.5956 36.3788 51.6836 36.5861 51.7696C36.6135 51.7774 36.9675 51.8733 37.648 52.0571ZM61.9536 56.9147C61.9536 56.4432 61.7663 55.9911 61.433 55.6577C61.0996 55.3244 60.6475 55.1371 60.176 55.1371C59.7046 55.1371 59.2524 55.3244 58.9191 55.6577C58.5857 55.9911 58.3984 56.4432 58.3984 56.9147C58.3984 57.3861 58.5857 57.8383 58.9191 58.1716C59.2524 58.505 59.7046 58.6923 60.176 58.6923C60.6475 58.6923 61.0996 58.505 61.433 58.1716C61.7663 57.8383 61.9536 57.3861 61.9536 56.9147Z"
    fill="#2D2E2F" />
  <path
    d="M66.5883 17.1035L24.9584 9.89921C24.6807 9.85228 24.6357 9.72126 24.8235 9.50615C27.9152 5.96855 32.3445 3.09975 37.1024 2.74188C38.4283 2.64019 40.4777 2.86899 43.2507 3.42828C58.2302 6.43593 69.9303 8.77086 78.3509 10.4331C78.3681 10.4349 78.3837 10.4426 78.3954 10.4548C78.4071 10.4669 78.4141 10.483 78.4155 10.5004C78.4168 10.5179 78.4123 10.5357 78.4028 10.5511C78.3932 10.5665 78.3791 10.5787 78.3627 10.5856C74.4359 12.0953 70.8807 14.1701 67.6971 16.8101C67.5445 16.9371 67.3662 17.0291 67.1746 17.0797C66.9831 17.1304 66.7829 17.1385 66.5883 17.1035Z"
    fill="#C97D3F" />
  <path
    d="M88.9109 42.4181L69.4219 18.928C69.2146 18.6816 69.2322 18.4528 69.4747 18.2416C74.6021 13.8123 83.3728 9.35362 89.6736 13.384C92.7184 15.3376 94.5195 19.6613 94.8128 23.1051C95.3936 29.9397 92.8709 36.4811 89.4213 42.3771C89.3962 42.4207 89.3608 42.4576 89.3182 42.4845C89.2756 42.5115 89.2271 42.5276 89.1769 42.5317C89.1267 42.5357 89.0763 42.5275 89.0299 42.5077C88.9836 42.4879 88.9428 42.4572 88.9109 42.4181Z"
    fill="#B77437" />
  <path
    d="M25.0053 12.6331C24.7472 12.2146 24.8587 12.0484 25.3397 12.1344L47.9675 16.0475C48.0356 16.06 48.1002 16.0874 48.1565 16.1278C48.2127 16.1682 48.2594 16.2206 48.293 16.2812C48.3267 16.3418 48.3465 16.409 48.3511 16.4782C48.3557 16.5473 48.3449 16.6166 48.3195 16.6811C47.5803 18.5154 46.5301 20.1639 45.1691 21.6267C42.49 24.5013 39.3102 26.9282 35.6299 28.9072C35.5217 28.9661 35.3952 28.9812 35.2762 28.9496C35.1573 28.9179 35.055 28.8419 34.9904 28.7371L25.0053 12.6331Z"
    fill="#995E2C" />
  <path
    d="M38.2053 29.9397C39.4373 29.1184 40.8043 28.1758 42.3061 27.112C46.1977 24.3508 48.9452 20.9501 50.5488 16.9099C50.5919 16.7991 50.6723 16.7068 50.7762 16.6489C50.8801 16.5911 51.001 16.5713 51.1179 16.5931C56.3431 17.5239 61.056 18.3316 65.2565 19.016C66.5707 19.2272 67.6443 19.898 68.4773 21.0283C68.9858 21.7166 69.2478 22.0686 69.2635 22.0843C73.7534 27.5481 79.2329 34.1716 85.7019 41.9547C86.1243 42.467 86.0148 42.6411 85.3733 42.4768L66.7584 37.7307C66.6987 37.7157 66.6454 37.682 66.6064 37.6344C66.5673 37.5869 66.5445 37.5281 66.5413 37.4667C66.3888 33.8763 62.7925 32.4331 59.7419 31.9813C55.866 31.4025 52.346 31.5531 49.1819 32.4331C48.3136 32.6756 47.5255 32.7088 46.8176 32.5328C43.7356 31.7662 40.8844 31.0192 38.264 30.2917C38.2276 30.2808 38.1949 30.2599 38.1696 30.2315C38.1444 30.203 38.1277 30.1682 38.1215 30.1312C38.1153 30.0941 38.1199 30.0564 38.1348 30.0225C38.1496 29.9886 38.1741 29.9599 38.2053 29.9397Z"
    fill="#7C4822" />
  <path
    d="M12.5955 20.7834L12.5547 20.8066C12.0448 21.0963 11.8663 21.7444 12.1559 22.2544L16.0911 29.1816C16.3808 29.6915 17.029 29.87 17.5389 29.5804L17.5797 29.5572C18.0896 29.2675 18.2681 28.6193 17.9785 28.1094L14.0433 21.1822C13.7536 20.6722 13.1054 20.4937 12.5955 20.7834Z"
    fill="#FFC601" />
  <path
    d="M8.85469 32.8106L2.7367 29.5713C2.227 29.3014 1.59505 29.4958 1.32518 30.0055L1.29772 30.0574C1.02785 30.5671 1.22228 31.199 1.73197 31.4689L7.84997 34.7082C8.35966 34.9781 8.99162 34.7837 9.26149 34.274L9.28894 34.2221C9.55881 33.7124 9.36439 33.0805 8.85469 32.8106Z"
    fill="#FFC601" />
  <path
    d="M42.7168 35.0731C42.5799 34.8971 42.1614 34.5979 41.4613 34.1755C40.3349 33.495 40.421 33.2622 41.7195 33.4773C42.3609 33.5869 43.4677 33.8528 45.04 34.2752C45.2825 34.3417 45.3412 34.4845 45.216 34.7035L44.5589 35.8358C44.3634 36.176 44.0955 36.2484 43.7552 36.0528C43.4267 35.8651 43.0805 35.5385 42.7168 35.0731Z"
    fill="#FFC601" />
  <path
    d="M55.4651 39.7019C60.2993 39.7019 64.2181 38.3755 64.2181 36.7392C64.2181 35.103 60.2993 33.7766 55.4651 33.7766C50.6309 33.7766 46.712 35.103 46.712 36.7392C46.712 38.3755 50.6309 39.7019 55.4651 39.7019Z"
    fill="#FFC601" />
  <path
    d="M12.9493 44.1371C12.7186 44.0628 12.6697 43.922 12.8027 43.7147C14.8951 40.4802 17.5508 37.7894 20.7696 35.6422C22.1385 34.7309 23.1006 34.2654 23.656 34.2459C23.8672 34.2381 23.9708 34.3417 23.9669 34.5568C23.9552 35.0574 23.787 35.5835 23.4624 36.135C21.4795 39.4907 18.8825 42.3614 15.6715 44.7472C15.5033 44.8724 15.3195 44.9017 15.12 44.8352L12.9493 44.1371Z"
    fill="#FFC601" />
  <path
    d="M28.6133 35.1611C28.6133 35.0677 28.6504 34.9782 28.7164 34.9122C28.7824 34.8462 28.872 34.8091 28.9653 34.8091H31.5173C34.0208 34.8091 36.4218 34.9939 38.192 35.3229C39.9623 35.6518 40.9568 36.098 40.9568 36.5632V36.6454C40.9568 37.1106 39.9623 37.5567 38.192 37.8857C36.4218 38.2147 34.0208 38.3995 31.5173 38.3995H28.9653C28.872 38.3995 28.7824 38.3624 28.7164 38.2964C28.6504 38.2304 28.6133 38.1408 28.6133 38.0475V35.1611Z"
    fill="#FFC601" />
  <path
    d="M19.4437 46.1611L18.0768 45.815C18.0603 45.8099 18.0452 45.8005 18.0334 45.7879C18.0215 45.7753 18.0133 45.7599 18.0097 45.7435C18.006 45.727 18.0071 45.7102 18.0127 45.6949C18.0183 45.6795 18.0283 45.6663 18.0416 45.6565C21.3856 42.9266 23.9689 39.8466 25.7915 36.4165C25.9753 36.0724 26.1689 36.0645 26.3723 36.3931L26.5072 36.616C26.6092 36.7805 26.6666 36.9687 26.6738 37.162C26.681 37.3554 26.6378 37.5474 26.5483 37.7189C24.7961 41.0434 22.5042 43.8418 19.6725 46.1141C19.606 46.1689 19.5298 46.1845 19.4437 46.1611Z"
    fill="#ECA214" />
  <path
    d="M43.3915 41.5616C43.3693 41.5602 43.3477 41.5542 43.3279 41.5442C43.3082 41.5342 43.2906 41.5203 43.2764 41.5033C43.2621 41.4863 43.2514 41.4666 43.245 41.4453C43.2386 41.4241 43.2365 41.4018 43.2389 41.3797L43.2507 41.2917C43.3089 40.6769 43.4164 40.0924 43.5495 39.6666C43.6826 39.2408 43.8305 39.0087 43.9605 39.0214L44.0779 39.0331C44.2075 39.0474 44.3087 39.3042 44.3592 39.7474C44.4098 40.1905 44.4057 40.7838 44.3477 41.3973L44.3419 41.4853C44.3397 41.507 44.3332 41.5279 44.3229 41.547C44.3125 41.5661 44.2985 41.583 44.2816 41.5967C44.2646 41.6103 44.2452 41.6204 44.2243 41.6265C44.2035 41.6326 44.1816 41.6345 44.16 41.632L43.3915 41.5616Z"
    fill="#7C4822" />
  <path
    d="M34.8144 41.9547C32.2096 42.1502 29.6967 42.0466 27.2757 41.6438C27.0841 41.6125 27.0156 41.5029 27.0704 41.3152C27.266 40.6347 27.6434 40.3238 28.2027 40.3824C33.4357 40.9261 37.6382 40.5897 40.8101 39.3734C41.2599 39.2013 41.4105 39.344 41.2619 39.8016L41.1856 40.0363C41.0722 40.3844 40.8434 40.6249 40.4992 40.7579C38.8409 41.3993 36.946 41.7982 34.8144 41.9547Z"
    fill="#ECA214" />
  <path
    d="M69.3808 41.2741C68.2036 41.3485 67.1906 41.2077 66.3419 40.8517C66.3262 40.3237 66.4553 40.0656 66.7291 40.0774C67.7264 40.1243 68.6553 40.2964 69.5157 40.5936C69.5603 40.6083 69.601 40.6327 69.635 40.6651C69.6689 40.6975 69.6953 40.7369 69.7121 40.7807C69.729 40.8245 69.7359 40.8715 69.7323 40.9183C69.7288 40.965 69.7149 41.0105 69.6917 41.0512C69.6213 41.1764 69.5177 41.2507 69.3808 41.2741Z"
    fill="white" />
  <path
    d="M50.4843 41.3915C50.5038 41.3993 50.5136 41.411 50.5136 41.4267V41.5851C50.5136 41.6281 50.4901 41.6496 50.4432 41.6496L46.9584 41.5557C46.7433 41.5479 46.6357 41.4384 46.6357 41.2272V40.3179C46.6357 40.1419 46.7257 40.0852 46.9056 40.1477L50.4843 41.3915Z"
    fill="#ECA214" />
  <path
    d="M64.4059 40.8811L61.1264 41.5499L64.0656 40.2416C64.2807 40.1438 64.4059 40.2103 64.4411 40.4411C64.4606 40.5702 64.4489 40.7168 64.4059 40.8811Z"
    fill="#ECA214" />
  <path
    d="M66.3419 40.8517C67.1906 41.2077 68.2036 41.3485 69.3808 41.2741L68.7707 43.48L63.8661 43.2219C63.5454 43.2062 63.4496 43.347 63.5787 43.6443C64.0871 44.802 64.6112 45.9655 65.1509 47.135C65.4482 47.7764 65.5948 48.4276 65.5909 49.0886C65.5909 49.288 65.6887 49.376 65.8843 49.3526L68.8235 48.9829C69.0855 49.6478 69.2341 50.3421 69.2693 51.0656C67.6501 51.3511 66.0309 51.4685 64.4117 51.4176C63.9502 51.4059 63.5787 51.5037 63.2971 51.7109C62.9803 51.9417 62.6948 52.2311 62.4405 52.5792L61.2437 50.7664C61.5605 50.5122 61.7698 50.2228 61.8715 49.8981C61.938 49.7026 61.8676 49.5892 61.6603 49.5579C59.8612 49.2763 58.5548 49.4308 57.7413 50.0213C57.0999 50.1348 56.3959 49.9998 55.6293 49.6166L53.4235 49.5051L54.5029 47.352L50.8539 44.1899C51.0455 43.5524 51.3623 43.0967 51.8043 42.8229C52.2032 42.5726 52.6197 42.5609 53.0539 42.7877C53.4684 43.0068 53.7852 43.351 54.0043 43.8203L57.0432 46.695C57.118 46.7647 57.2174 46.802 57.3196 46.7987C57.4218 46.7954 57.5186 46.7517 57.5888 46.6773C58.5275 45.6761 59.1806 44.6807 59.5483 43.6912C59.5991 43.0068 60.1252 42.293 61.1264 41.5499L64.4059 40.8811C65.102 40.7403 65.7474 40.7305 66.3419 40.8517ZM61.9888 45.0582C61.9646 44.9933 61.9225 44.9367 61.8673 44.8949C61.812 44.8532 61.7461 44.8281 61.6771 44.8225C61.6081 44.817 61.5389 44.8313 61.4778 44.8636C61.4166 44.896 61.3659 44.9452 61.3317 45.0053L60.0587 47.2053C59.9804 47.3383 60.0196 47.4048 60.176 47.4048H62.4523C62.7221 47.4048 62.8101 47.2777 62.7163 47.0235L61.9888 45.0582Z"
    fill="#22251F" />
  <path
    d="M76.5851 42.6646L76.0219 43.6326C75.8498 43.9298 75.6171 43.9924 75.3237 43.8203L71.9269 41.8608C71.8252 41.8022 71.7881 41.7142 71.8155 41.5968L71.8741 41.3739C71.9015 41.2683 71.97 41.2292 72.0795 41.2565L76.4619 42.3712C76.63 42.4142 76.6711 42.512 76.5851 42.6646Z"
    fill="#FFC601" />
  <path
    d="M9.38827 42.6997L10.6731 42.2187C10.8256 42.1639 10.9253 42.2128 10.9723 42.3653C11.0036 42.4553 10.9781 42.5413 10.896 42.6235C10.4501 43.0733 9.9456 43.1261 9.3824 42.7819C9.37532 42.7773 9.3696 42.7709 9.36583 42.7634C9.36206 42.7559 9.36039 42.7475 9.36099 42.7391C9.36159 42.7307 9.36444 42.7226 9.36924 42.7157C9.37404 42.7088 9.38061 42.7033 9.38827 42.6997Z"
    fill="#995E2C" />
  <path
    d="M68.7707 43.48C70.4172 43.7538 72.0775 44.3463 73.7515 45.2576C73.8776 45.3266 73.988 45.4212 74.0756 45.5354C74.1631 45.6496 74.226 45.7809 74.2602 45.9209C74.2944 46.061 74.2992 46.2068 74.2742 46.3492C74.2492 46.4915 74.1951 46.6272 74.1152 46.7477C73.2704 48.0208 70.2784 48.8187 68.8235 48.9829L65.8843 49.3526C65.6887 49.376 65.5909 49.288 65.5909 49.0886C65.5948 48.4276 65.4482 47.7764 65.1509 47.135C64.6112 45.9655 64.0871 44.802 63.5787 43.6443C63.4496 43.347 63.5454 43.2062 63.8661 43.2219L68.7707 43.48Z"
    fill="#FFC601" />
  <path
    d="M24.7413 44.3307L25.0288 43.832C25.1813 43.5621 25.4101 43.4605 25.7152 43.527C29.7163 44.3991 33.6997 44.4793 37.6656 43.7675C38.0802 43.6932 38.2112 43.8535 38.0587 44.2485L37.8181 44.8704C37.7537 45.0365 37.6468 45.1829 37.5078 45.2951C37.3689 45.4073 37.2028 45.4813 37.0261 45.5099C32.8803 46.167 28.848 45.9323 24.9291 44.8059C24.6631 44.7277 24.6005 44.5693 24.7413 44.3307Z"
    fill="#FFC601" />
  <path
    d="M42.5349 43.7616H47.7328C48.0261 43.7616 48.0652 43.8613 47.8501 44.0608L45.0693 46.6128C45.0342 46.6443 44.9932 46.6685 44.9485 46.6838C44.9039 46.6992 44.8567 46.7054 44.8096 46.7021C44.7625 46.6988 44.7166 46.6861 44.6746 46.6647C44.6325 46.6433 44.5952 46.6137 44.5648 46.5776L42.4235 43.9963C42.4058 43.9761 42.3945 43.9513 42.3909 43.9249C42.3874 43.8984 42.3917 43.8712 42.4034 43.8466C42.415 43.8221 42.4336 43.801 42.4569 43.7859C42.4802 43.7709 42.5073 43.7625 42.5349 43.7616Z"
    fill="#0CAFE2" />
  <path
    d="M59.5483 43.6912C59.1806 44.6807 58.5275 45.6761 57.5888 46.6773C57.5186 46.7517 57.4218 46.7954 57.3196 46.7987C57.2174 46.802 57.118 46.7647 57.0432 46.695L54.0043 43.8203L59.5483 43.6912Z"
    fill="#1C68D2" />
  <path
    d="M50.8539 44.1899L54.5029 47.352L47.9557 47.3109C47.7406 47.307 47.7113 47.2308 47.8677 47.0821L50.8539 44.1899Z"
    fill="#0CAFE2" />
  <path
    d="M35.8528 69.4048C35.9029 69.3007 35.929 69.1864 35.9291 69.0704V54.3099C35.9291 53.9774 36.0875 53.8621 36.4043 53.9638L55.9109 60.2528C56.1221 60.3232 56.2258 60.4679 56.2219 60.687C56.0928 68.8807 55.9227 77.4206 55.7115 86.3067C55.6919 87.1906 55.6763 87.6541 55.6645 87.6971C55.4964 88.3541 55.0994 88.5438 54.4736 88.2661C40.1237 81.9184 26.206 75.7604 12.7205 69.792C11.074 69.0646 9.88498 67.9968 9.1536 66.5888C8.71556 65.7518 8.3968 64.2715 8.19733 62.1478C7.70844 56.9342 7.17653 51.1262 6.6016 44.7238C6.58204 44.4734 6.6896 44.3874 6.92427 44.4656L21.8725 49.2822C22.0564 49.3447 22.1541 49.4718 22.1659 49.6635L23.0987 64.8523C23.1093 65.0121 23.1646 65.1654 23.2581 65.2942C23.3516 65.423 23.4794 65.522 23.6267 65.5798C29.0944 67.7387 32.7532 69.1506 34.6032 69.8155C35.2016 70.0306 35.6181 69.8937 35.8528 69.4048Z"
    fill="#C97D3F" />
  <path
    d="M42.2064 47.2757C42.2025 47.2875 42.1966 47.2973 42.1888 47.3051C42.1653 47.3364 42.1477 47.352 42.136 47.352L39.4021 47.3755C39.2105 47.3794 39.1499 47.2406 39.2203 46.959C39.2398 46.8807 39.3748 46.5796 39.6251 46.0555C39.8754 45.5314 40.024 45.2361 40.0709 45.1696C40.243 44.935 40.3877 44.8939 40.5051 45.0464L42.2181 47.176C42.226 47.1838 42.226 47.2073 42.2181 47.2464C42.2142 47.2581 42.2103 47.2679 42.2064 47.2757Z"
    fill="#0CAFE2" />
  <path
    d="M61.9888 45.0582L62.7163 47.0235C62.8101 47.2777 62.7221 47.4048 62.4523 47.4048H60.176C60.0196 47.4048 59.9804 47.3383 60.0587 47.2053L61.3317 45.0053C61.3659 44.9452 61.4166 44.896 61.4778 44.8636C61.5389 44.8313 61.6081 44.817 61.6771 44.8225C61.7461 44.8281 61.812 44.8532 61.8673 44.8949C61.9225 44.9367 61.9646 44.9933 61.9888 45.0582Z"
    fill="#1C68D2" />
  <path
    d="M36.0464 47.8331C36.067 47.8306 36.0878 47.8321 36.1077 47.8377C36.1275 47.8432 36.146 47.8525 36.1619 47.8652C36.1778 47.8778 36.1908 47.8934 36.2002 47.9111C36.2096 47.9288 36.2152 47.9481 36.2165 47.968L36.2811 49.0592C36.2889 49.1609 36.24 49.2196 36.1344 49.2352C31.8283 49.8805 27.6844 49.2704 23.7029 47.4048C23.5426 47.3305 23.4839 47.2054 23.5269 47.0294L23.568 46.8768C23.5993 46.7477 23.6775 46.7047 23.8027 46.7477C27.526 47.9719 31.6073 48.3337 36.0464 47.8331Z"
    fill="#ECA214" />
  <path
    d="M76.8843 46.7008L83.3141 48.4139C83.3863 48.4327 83.4504 48.4742 83.497 48.5323C83.5436 48.5905 83.5702 48.6621 83.5728 48.7366C83.5755 48.8111 83.554 48.8844 83.5116 48.9457C83.4692 49.007 83.4082 49.053 83.3376 49.0768L77.0427 51.2299C76.9914 51.2473 76.9368 51.2525 76.8832 51.2451C76.8296 51.2376 76.7785 51.2176 76.734 51.1868C76.6895 51.156 76.6528 51.1152 76.627 51.0677C76.6011 51.0201 76.5868 50.9672 76.5851 50.9131L76.4501 47.047C76.4483 46.993 76.4592 46.9395 76.4818 46.8905C76.5044 46.8415 76.5381 46.7985 76.5803 46.7649C76.6225 46.7313 76.6719 46.708 76.7247 46.6968C76.7775 46.6857 76.8321 46.6871 76.8843 46.7008Z"
    fill="#7C4822" />
  <path
    d="M44.2597 54.2512C43.7435 54.087 43.3093 53.9285 42.9984 53.5707C42.1184 52.5655 41.0428 51.2749 39.7717 49.6987C39.7631 49.6887 39.7577 49.6764 39.7561 49.6634C39.7546 49.6503 39.7571 49.6369 39.7632 49.6247C39.7693 49.6125 39.7788 49.602 39.7907 49.5943C39.8025 49.5867 39.8163 49.5822 39.8304 49.5814H43.7552C43.8032 49.5814 43.8497 49.5956 43.8885 49.6218C43.9273 49.648 43.9566 49.6851 43.9723 49.728L45.6619 54.2747C45.7479 54.5054 45.6697 54.6032 45.4272 54.568C45.2004 54.5367 44.8112 54.4311 44.2597 54.2512Z"
    fill="#0CAFE2" />
  <path
    d="M53.4235 49.5051L55.6293 49.6166L52.872 56.68C52.7977 56.8638 52.6667 56.9264 52.4789 56.8678L48.7653 55.671C48.5776 55.6084 48.4505 55.4852 48.384 55.3014L46.3541 49.8571C46.3399 49.8199 46.3349 49.7798 46.3396 49.7402C46.3442 49.7007 46.3584 49.6628 46.3809 49.6299C46.4034 49.5971 46.4335 49.5701 46.4687 49.5515C46.5039 49.5328 46.5431 49.5229 46.5829 49.5227L53.4235 49.5051Z"
    fill="#0091EA" />
  <path
    d="M61.2437 50.7664L56.4213 56.5979C55.1502 58.131 54.8549 57.9629 55.5355 56.0933L57.7413 50.0213C58.5548 49.4308 59.8612 49.2763 61.6603 49.5579C61.8676 49.5892 61.938 49.7026 61.8715 49.8981C61.7698 50.2228 61.5605 50.5122 61.2437 50.7664Z"
    fill="#1C68D2" />
  <path
    d="M62.4405 52.5792C62.6948 52.2311 62.9803 51.9417 63.2971 51.7109C63.5787 51.5037 63.9502 51.4059 64.4117 51.4176C66.0309 51.4685 67.6501 51.3511 69.2693 51.0656L74.0213 49.7045C74.2404 49.642 74.3479 49.7261 74.344 49.9568C74.3127 51.1966 73.5755 52.0649 72.1323 52.5616C68.933 53.6685 65.632 53.9696 62.2293 53.4651C62.022 53.4338 61.9732 53.3301 62.0827 53.1541L62.4405 52.5792Z"
    fill="#ECA214" />
  <path
    d="M24.624 50.1504L33.6763 53.072C33.7175 53.0847 33.7535 53.1104 33.7789 53.1453C33.8043 53.1802 33.8177 53.2225 33.8171 53.2656V66.9467C33.8172 66.979 33.8095 67.011 33.7946 67.0397C33.7797 67.0684 33.7581 67.093 33.7315 67.1115C33.7049 67.13 33.6743 67.1417 33.6422 67.1457C33.6101 67.1497 33.5775 67.1458 33.5472 67.1344L25.3221 63.9488C25.2869 63.9343 25.2566 63.91 25.2348 63.8788C25.213 63.8476 25.2005 63.8108 25.1989 63.7728L24.3659 50.3557C24.3634 50.3233 24.369 50.2908 24.382 50.261C24.395 50.2312 24.4152 50.205 24.4406 50.1848C24.4661 50.1645 24.4961 50.1508 24.528 50.1448C24.56 50.1388 24.5929 50.1408 24.624 50.1504ZM30.1648 56.7308C30.1486 56.4575 30.0244 56.2017 29.8196 56.0199C29.6148 55.8381 29.3462 55.7451 29.0729 55.7614L28.9792 55.7669C28.7058 55.7831 28.4501 55.9073 28.2683 56.1121C28.0865 56.3168 27.9935 56.5855 28.0097 56.8588L28.2352 60.6537C28.2514 60.9271 28.3756 61.1828 28.5804 61.3646C28.7852 61.5464 29.0538 61.6395 29.3271 61.6232L29.4208 61.6177C29.6942 61.6015 29.9499 61.4773 30.1317 61.2725C30.3135 61.0677 30.4065 60.7991 30.3903 60.5257L30.1648 56.7308Z"
    fill="#FFC601" />
  <path
    d="M59.4544 60.112C59.122 61.4496 59.6441 62.2807 61.0208 62.6054C61.232 62.6523 61.2457 62.7364 61.0619 62.8576C60.0372 63.5108 59.8455 64.383 60.4869 65.4742C60.6747 65.791 61.0677 65.9259 61.4667 66.0784C61.7365 66.1801 61.7365 66.2818 61.4667 66.3835L61.232 66.4715C61.0443 66.5419 60.8937 66.6592 60.7803 66.8235C60.0997 67.7973 60.2034 68.6578 61.0912 69.4048C61.4256 69.6864 61.8656 69.6453 62.1648 69.7216C62.3877 69.7842 62.4053 69.8644 62.2176 69.9621C60.9895 70.6036 60.7568 71.4953 61.5195 72.6373C61.9145 73.2318 62.4288 73.4548 63.0624 73.3061C64.3648 73.0011 64.8537 72.1797 64.5291 70.8421C64.4235 70.408 63.8994 70.0443 62.9568 69.7509C62.7534 69.6845 62.7436 69.5965 62.9275 69.4869C64.3413 68.6421 64.1243 66.8293 62.5637 66.2896C62.3095 66.2036 62.3036 66.1019 62.5461 65.9845C64.2944 65.1397 63.8544 62.7109 61.8715 62.6816C61.6172 62.6777 61.5899 62.5975 61.7893 62.4411C62.0827 62.2123 62.4288 62.0187 62.6048 61.7253C63.1484 60.818 62.9099 59.9575 61.8891 59.144L70.3429 56.0112C71.4928 57.8006 73.8747 56.856 73.7339 54.8086L86.5584 50.1211C86.5874 50.1104 86.6186 50.1068 86.6492 50.1107C86.6798 50.1145 86.7088 50.1256 86.7338 50.143C86.7588 50.1605 86.7788 50.1836 86.7922 50.2105C86.8057 50.2374 86.812 50.2671 86.8107 50.2971C86.662 59.6838 86.4939 66.272 86.3061 70.0619C86.2084 72.0174 85.4535 73.7129 84.0416 75.1483C83.3298 75.8758 82.1154 76.6599 80.3984 77.5008C74.8133 80.2464 68.4226 83.4359 61.2261 87.0694C60.5651 87.4018 59.5365 87.8164 58.1403 88.3131C58.1066 88.3243 58.0708 88.3276 58.0357 88.3226C58.0007 88.3176 57.9674 88.3046 57.9388 88.2845C57.9101 88.2644 57.8868 88.2379 57.8708 88.2071C57.8548 88.1764 57.8466 88.1423 57.8469 88.1078C58.0073 79.8084 58.1755 70.8969 58.3515 61.3734C58.371 60.423 58.7387 60.0025 59.4544 60.112ZM73.6928 59.1675C73.6928 58.7038 73.5086 58.2591 73.1807 57.9313C72.8529 57.6034 72.4082 57.4192 71.9445 57.4192C71.7149 57.4192 71.4876 57.4644 71.2755 57.5523C71.0634 57.6401 70.8707 57.7689 70.7083 57.9313C70.546 58.0936 70.4172 58.2863 70.3293 58.4985C70.2415 58.7106 70.1963 58.9379 70.1963 59.1675C70.1963 59.3971 70.2415 59.6244 70.3293 59.8365C70.4172 60.0486 70.546 60.2414 70.7083 60.4037C70.8707 60.566 71.0634 60.6948 71.2755 60.7827C71.4876 60.8705 71.7149 60.9157 71.9445 60.9157C72.4082 60.9157 72.8529 60.7316 73.1807 60.4037C73.5086 60.0758 73.6928 59.6312 73.6928 59.1675ZM73.7221 63.1392C73.7221 62.6693 73.5355 62.2187 73.2032 61.8864C72.8709 61.5541 72.4203 61.3675 71.9504 61.3675C71.4805 61.3675 71.0299 61.5541 70.6976 61.8864C70.3653 62.2187 70.1787 62.6693 70.1787 63.1392C70.1787 63.6091 70.3653 64.0598 70.6976 64.392C71.0299 64.7243 71.4805 64.9109 71.9504 64.9109C72.4203 64.9109 72.8709 64.7243 73.2032 64.392C73.5355 64.0598 73.7221 63.6091 73.7221 63.1392ZM73.7104 67.0816C73.7104 66.6164 73.5256 66.1702 73.1966 65.8413C72.8677 65.5123 72.4215 65.3275 71.9563 65.3275C71.491 65.3275 71.0449 65.5123 70.7159 65.8413C70.3869 66.1702 70.2021 66.6164 70.2021 67.0816C70.2021 67.312 70.2475 67.5401 70.3357 67.7529C70.4238 67.9657 70.553 68.1591 70.7159 68.322C70.8788 68.4849 71.0722 68.6141 71.285 68.7022C71.4978 68.7904 71.7259 68.8357 71.9563 68.8357C72.1866 68.8357 72.4147 68.7904 72.6275 68.7022C72.8404 68.6141 73.0337 68.4849 73.1966 68.322C73.3595 68.1591 73.4887 67.9657 73.5769 67.7529C73.665 67.5401 73.7104 67.312 73.7104 67.0816ZM73.2528 70.7893C73.2528 70.3257 73.0686 69.881 72.7407 69.5531C72.4129 69.2253 71.9682 69.0411 71.5045 69.0411C71.2749 69.0411 71.0476 69.0863 70.8355 69.1742C70.6234 69.262 70.4307 69.3908 70.2683 69.5531C70.106 69.7155 69.9772 69.9082 69.8893 70.1203C69.8015 70.3324 69.7563 70.5598 69.7563 70.7893C69.7563 71.0189 69.8015 71.2463 69.8893 71.4584C69.9772 71.6705 70.106 71.8632 70.2683 72.0256C70.4307 72.1879 70.6234 72.3167 70.8355 72.4045C71.0476 72.4924 71.2749 72.5376 71.5045 72.5376C71.9682 72.5376 72.4129 72.3534 72.7407 72.0256C73.0686 71.6977 73.2528 71.253 73.2528 70.7893ZM72.3493 74.6555C72.3493 74.4251 72.304 74.197 72.2158 73.9842C72.1277 73.7714 71.9985 73.578 71.8356 73.4151C71.6727 73.2522 71.4793 73.123 71.2665 73.0349C71.0537 72.9467 70.8256 72.9013 70.5952 72.9013C70.13 72.9013 69.6838 73.0862 69.3548 73.4151C69.0259 73.7441 68.8411 74.1903 68.8411 74.6555C68.8411 75.1207 69.0259 75.5669 69.3548 75.8958C69.6838 76.2248 70.13 76.4096 70.5952 76.4096C70.8256 76.4096 71.0537 76.3642 71.2665 76.2761C71.4793 76.1879 71.6727 76.0587 71.8356 75.8958C71.9985 75.7329 72.1277 75.5396 72.2158 75.3268C72.304 75.1139 72.3493 74.8858 72.3493 74.6555ZM65.4149 75.3536C65.4149 74.8899 65.2307 74.4453 64.9029 74.1174C64.575 73.7895 64.1303 73.6054 63.6667 73.6054C63.203 73.6054 62.7583 73.7895 62.4305 74.1174C62.1026 74.4453 61.9184 74.8899 61.9184 75.3536C61.9184 75.8173 62.1026 76.262 62.4305 76.5898C62.7583 76.9177 63.203 77.1019 63.6667 77.1019C64.1303 77.1019 64.575 76.9177 64.9029 76.5898C65.2307 76.262 65.4149 75.8173 65.4149 75.3536ZM68.9525 76.6208C68.9525 76.1525 68.7665 75.7033 68.4353 75.3722C68.1042 75.041 67.655 74.8549 67.1867 74.8549C66.7183 74.8549 66.2692 75.041 65.938 75.3722C65.6068 75.7033 65.4208 76.1525 65.4208 76.6208C65.4208 77.0892 65.6068 77.5383 65.938 77.8695C66.2692 78.2006 66.7183 78.3867 67.1867 78.3867C67.655 78.3867 68.1042 78.2006 68.4353 77.8695C68.7665 77.5383 68.9525 77.0892 68.9525 76.6208Z"
    fill="#995E2C" />
  <path
    d="M37.8827 51.1888C38.1604 51.2631 38.4889 51.5741 38.8683 52.1216C38.9895 52.2976 38.9387 52.37 38.7157 52.3387C38.6884 52.3348 38.3324 52.2409 37.648 52.0571C36.9675 51.8733 36.6135 51.7774 36.5861 51.7696C36.3788 51.6836 36.371 51.5956 36.5627 51.5056C37.165 51.2201 37.605 51.1145 37.8827 51.1888Z"
    fill="#7C4822" />
  <path
    d="M73.7339 54.8086C73.8747 56.856 71.4928 57.8006 70.3429 56.0112C69.9792 54.9044 70.2745 54.1319 71.2288 53.6939C72.2574 53.2206 73.0924 53.5922 73.7339 54.8086Z"
    fill="#EFE6DF" />
  <path
    d="M60.176 58.6923C61.1577 58.6923 61.9536 57.8964 61.9536 56.9147C61.9536 55.9329 61.1577 55.1371 60.176 55.1371C59.1943 55.1371 58.3984 55.9329 58.3984 56.9147C58.3984 57.8964 59.1943 58.6923 60.176 58.6923Z"
    fill="#EFE6DF" />
  <path
    d="M29.0729 55.7614L28.9792 55.7669C28.4099 55.8007 27.9759 56.2896 28.0097 56.8588L28.2352 60.6537C28.269 61.223 28.7579 61.657 29.3271 61.6232L29.4208 61.6177C29.9901 61.5839 30.4241 61.095 30.3903 60.5257L30.1648 56.7308C30.131 56.1616 29.6421 55.7275 29.0729 55.7614Z"
    fill="#2D2E2F" />
  <path
    d="M71.9445 60.9157C72.9101 60.9157 73.6928 60.133 73.6928 59.1675C73.6928 58.2019 72.9101 57.4192 71.9445 57.4192C70.979 57.4192 70.1963 58.2019 70.1963 59.1675C70.1963 60.133 70.979 60.9157 71.9445 60.9157Z"
    fill="#EFE6DF" />
  <path
    d="M61.8891 59.144C62.9099 59.9575 63.1484 60.818 62.6048 61.7253C62.4288 62.0187 62.0827 62.2123 61.7893 62.4411C61.5899 62.5975 61.6172 62.6777 61.8715 62.6816C63.8544 62.7109 64.2944 65.1397 62.5461 65.9845C62.3036 66.1019 62.3095 66.2036 62.5637 66.2896C64.1243 66.8293 64.3413 68.6421 62.9275 69.4869C62.7436 69.5965 62.7534 69.6845 62.9568 69.7509C63.8994 70.0443 64.4235 70.408 64.5291 70.8421C64.8537 72.1797 64.3648 73.0011 63.0624 73.3061C62.4288 73.4548 61.9145 73.2318 61.5195 72.6373C60.7568 71.4953 60.9895 70.6036 62.2176 69.9621C62.4053 69.8644 62.3877 69.7842 62.1648 69.7216C61.8656 69.6453 61.4256 69.6864 61.0912 69.4048C60.2034 68.6578 60.0997 67.7973 60.7803 66.8235C60.8937 66.6592 61.0443 66.5419 61.232 66.4715L61.4667 66.3835C61.7365 66.2818 61.7365 66.1801 61.4667 66.0784C61.0677 65.9259 60.6747 65.791 60.4869 65.4742C59.8455 64.383 60.0372 63.5108 61.0619 62.8576C61.2457 62.7364 61.232 62.6523 61.0208 62.6054C59.6441 62.2807 59.122 61.4496 59.4544 60.112C60.0254 59.1538 60.837 58.8311 61.8891 59.144Z"
    fill="#EFE6DF" />
  <path
    d="M71.9504 64.9109C72.9289 64.9109 73.7221 64.1177 73.7221 63.1392C73.7221 62.1607 72.9289 61.3675 71.9504 61.3675C70.9719 61.3675 70.1787 62.1607 70.1787 63.1392C70.1787 64.1177 70.9719 64.9109 71.9504 64.9109Z"
    fill="#EFE6DF" />
  <path
    d="M71.9563 68.8357C72.925 68.8357 73.7104 68.0504 73.7104 67.0816C73.7104 66.1128 72.925 65.3275 71.9563 65.3275C70.9875 65.3275 70.2021 66.1128 70.2021 67.0816C70.2021 68.0504 70.9875 68.8357 71.9563 68.8357Z"
    fill="#EFE6DF" />
  <path
    d="M71.5045 72.5376C72.4701 72.5376 73.2528 71.7549 73.2528 70.7893C73.2528 69.8238 72.4701 69.0411 71.5045 69.0411C70.539 69.0411 69.7563 69.8238 69.7563 70.7893C69.7563 71.7549 70.539 72.5376 71.5045 72.5376Z"
    fill="#EFE6DF" />
  <path
    d="M70.5952 76.4096C71.564 76.4096 72.3493 75.6243 72.3493 74.6555C72.3493 73.6867 71.564 72.9013 70.5952 72.9013C69.6264 72.9013 68.8411 73.6867 68.8411 74.6555C68.8411 75.6243 69.6264 76.4096 70.5952 76.4096Z"
    fill="#EFE6DF" />
  <path
    d="M63.6667 77.1019C64.6322 77.1019 65.4149 76.3192 65.4149 75.3536C65.4149 74.3881 64.6322 73.6054 63.6667 73.6054C62.7011 73.6054 61.9184 74.3881 61.9184 75.3536C61.9184 76.3192 62.7011 77.1019 63.6667 77.1019Z"
    fill="#EFE6DF" />
  <path
    d="M67.1867 78.3867C68.1619 78.3867 68.9525 77.5961 68.9525 76.6208C68.9525 75.6456 68.1619 74.8549 67.1867 74.8549C66.2114 74.8549 65.4208 75.6456 65.4208 76.6208C65.4208 77.5961 66.2114 78.3867 67.1867 78.3867Z"
    fill="#EFE6DF" />
  <path
    d="M11.0427 75.3478C13.7237 75.3478 18.9744 75.6528 20.6992 77.8645C21.3093 78.6448 21.1509 79.6011 21.1509 80.7451C21.1509 81.8891 21.3093 82.8453 20.6992 83.6256C18.9744 85.8373 13.7237 86.1366 11.0427 86.1366C8.35573 86.1366 3.10507 85.8315 1.38027 83.6256C0.770132 82.8395 0.934399 81.8891 0.934399 80.7392C0.934399 79.5952 0.770132 78.639 1.38027 77.8587C3.11093 75.6528 8.35573 75.3478 11.0427 75.3478ZM18.6224 79.0848C18.6224 78.6725 17.822 78.2771 16.3972 77.9855C14.9724 77.6939 13.04 77.5302 11.0251 77.5302C9.01013 77.5302 7.07772 77.6939 5.65294 77.9855C4.22816 78.2771 3.42773 78.6725 3.42773 79.0848C3.42773 79.4971 4.22816 79.8926 5.65294 80.1841C7.07772 80.4757 9.01013 80.6395 11.0251 80.6395C13.04 80.6395 14.9724 80.4757 16.3972 80.1841C17.822 79.8926 18.6224 79.4971 18.6224 79.0848ZM11.0309 83.96C13.3717 83.9541 16.8507 83.7723 18.7515 82.464C18.861 82.3858 18.9431 82.2861 18.9979 82.1648C19.08 81.981 19.0468 81.8402 18.8981 81.7424C18.8733 81.7241 18.844 81.7119 18.8124 81.7068C18.7809 81.7017 18.748 81.7039 18.7163 81.7131C16.1975 82.4718 13.6338 82.8532 11.0251 82.8571C8.41636 82.861 5.85262 82.4875 3.33387 81.7365C3.30216 81.7273 3.26926 81.7252 3.23772 81.7303C3.20618 81.7354 3.17685 81.7476 3.152 81.7659C3.00338 81.8636 2.97013 82.0025 3.05227 82.1824C3.10702 82.3037 3.19111 82.4034 3.30453 82.4816C5.20533 83.784 8.68426 83.96 11.0309 83.96Z"
    fill="#2D2E2F" />
  <path
    d="M11.0251 80.6395C15.221 80.6395 18.6224 79.9434 18.6224 79.0848C18.6224 78.2262 15.221 77.5302 11.0251 77.5302C6.82917 77.5302 3.42773 78.2262 3.42773 79.0848C3.42773 79.9434 6.82917 80.6395 11.0251 80.6395Z"
    fill="#FFC601" />
  <path
    d="M11.0309 83.96C8.68426 83.96 5.20533 83.784 3.30453 82.4816C3.19111 82.4034 3.10702 82.3037 3.05227 82.1824C2.97013 82.0025 3.00338 81.8636 3.152 81.7659C3.17685 81.7476 3.20618 81.7354 3.23772 81.7303C3.26926 81.7252 3.30216 81.7273 3.33387 81.7365C5.85262 82.4875 8.41636 82.861 11.0251 82.8571C13.6338 82.8532 16.1975 82.4718 18.7163 81.7131C18.748 81.7039 18.7809 81.7017 18.8124 81.7068C18.844 81.7119 18.8733 81.7241 18.8981 81.7424C19.0468 81.8402 19.08 81.981 18.9979 82.1648C18.9431 82.2861 18.861 82.3858 18.7515 82.464C16.8507 83.7723 13.3717 83.9541 11.0309 83.96Z"
    fill="#ECA214" />
  <path
    d="M95.2059 88.096C95.2 89.24 95.3643 90.1963 94.7483 90.9766C93.0235 93.1824 87.7728 93.4816 85.0859 93.4758C82.4048 93.4699 77.1541 93.1648 75.4293 90.9531C74.8192 90.167 74.9835 89.2107 74.9893 88.0667C74.9893 86.9227 74.8251 85.9664 75.4411 85.1862C77.1717 82.9803 82.4165 82.687 85.1035 82.687C87.7845 82.6928 93.0352 83.0038 94.76 85.2155C95.3701 85.9958 95.2059 86.952 95.2059 88.096ZM92.6832 86.424C92.6832 86.0164 91.8834 85.6254 90.4597 85.3372C89.036 85.0489 87.1051 84.887 85.0917 84.887C83.0783 84.887 81.1474 85.0489 79.7237 85.3372C78.3001 85.6254 77.5003 86.0164 77.5003 86.424C77.5003 86.8317 78.3001 87.2226 79.7237 87.5109C81.1474 87.7991 83.0783 87.9611 85.0917 87.9611C87.1051 87.9611 89.036 87.7991 90.4597 87.5109C91.8834 87.2226 92.6832 86.8317 92.6832 86.424ZM85.1328 91.3051C87.4912 91.3051 90.9877 91.1173 92.8885 89.8032C93.0019 89.725 93.086 89.6253 93.1408 89.504C93.2229 89.3202 93.1897 89.1794 93.0411 89.0816C93.0157 89.0634 92.9861 89.0514 92.9547 89.0463C92.9232 89.0412 92.8905 89.0432 92.8592 89.0523C90.3287 89.8149 87.7532 90.1982 85.1328 90.2021C82.5123 90.2021 79.9369 89.8247 77.4064 89.0699C77.3751 89.0609 77.3424 89.0588 77.3109 89.0639C77.2794 89.069 77.2499 89.081 77.2245 89.0992C77.0759 89.197 77.0427 89.3378 77.1248 89.5216C77.1795 89.6429 77.2636 89.7426 77.3771 89.8208C79.2837 91.1291 82.7803 91.311 85.1328 91.3051Z"
    fill="#2D2E2F" />
  <path
    d="M85.0917 87.9611C89.2844 87.9611 92.6832 87.2729 92.6832 86.424C92.6832 85.5751 89.2844 84.887 85.0917 84.887C80.8991 84.887 77.5003 85.5751 77.5003 86.424C77.5003 87.2729 80.8991 87.9611 85.0917 87.9611Z"
    fill="#FFC601" />
  <path
    d="M85.1328 90.2021C87.7532 90.1982 90.3287 89.8149 92.8592 89.0523C92.8905 89.0432 92.9232 89.0412 92.9547 89.0463C92.9861 89.0514 93.0157 89.0634 93.0411 89.0816C93.1897 89.1794 93.2229 89.3202 93.1408 89.504C93.086 89.6253 93.0019 89.725 92.8885 89.8032C90.9877 91.1173 87.4912 91.3051 85.1328 91.3051C82.7803 91.311 79.2837 91.1291 77.3771 89.8208C77.2636 89.7426 77.1795 89.6429 77.1248 89.5216C77.0427 89.3378 77.0759 89.197 77.2245 89.0992C77.2499 89.081 77.2794 89.069 77.3109 89.0639C77.3424 89.0588 77.3751 89.0609 77.4064 89.0699C79.9369 89.8247 82.5123 90.2021 85.1328 90.2021Z"
    fill="#ECA214" />
</svg>