<svg width="24" height="24" viewBox="0 0 24 24" fill="none" xmlns="http://www.w3.org/2000/svg">
<path d="M21.4671 11.6552C21.8083 11.9677 22 12.3916 22 12.8335C22 13.2755 21.8083 13.6993 21.4671 14.0119L13.2759 21.512C12.9346 21.8245 12.4717 22 11.989 22C11.5063 22 11.0434 21.8245 10.7021 21.512L2.51097 14.0119C2.17939 13.6975 1.99592 13.2765 2.00007 12.8395C2.00422 12.4025 2.19565 11.9845 2.53314 11.6755C2.87063 11.3665 3.32717 11.1912 3.80444 11.1874C4.2817 11.1836 4.7415 11.3516 5.0848 11.6552L10.1688 16.1669V3.6667C10.1688 3.22466 10.3605 2.80073 10.7019 2.48816C11.0433 2.1756 11.5063 2 11.989 2C12.4718 2 12.9348 2.1756 13.2761 2.48816C13.6175 2.80073 13.8093 3.22466 13.8093 3.6667V16.1669L18.8932 11.6552C19.2346 11.3427 19.6975 11.1672 20.1801 11.1672C20.6628 11.1672 21.1257 11.3427 21.4671 11.6552Z" fill="#D66D38"/>
</svg>
