<svg width="24" height="24" viewBox="0 0 24 24" fill="none" xmlns="http://www.w3.org/2000/svg">
<path d="M14.9999 20.47H6.07992C5.17461 20.4673 4.30729 20.1059 3.66807 19.4648C3.02886 18.8237 2.66991 17.9553 2.66992 17.05V8.15999C2.66991 7.25468 3.02886 6.3863 3.66807 5.74521C4.30729 5.10413 5.17461 4.74264 6.07992 4.73999H8.74992C8.94883 4.73999 9.1396 4.81901 9.28025 4.95966C9.4209 5.10031 9.49992 5.29108 9.49992 5.48999C9.49992 5.6889 9.4209 5.87967 9.28025 6.02032C9.1396 6.16097 8.94883 6.23999 8.74992 6.23999H6.07992C5.57244 6.24263 5.08664 6.44608 4.72873 6.80587C4.37082 7.16565 4.16991 7.6525 4.16992 8.15999V17.05C4.16595 17.3038 4.21235 17.5559 4.30643 17.7916C4.40052 18.0274 4.54042 18.2422 4.71804 18.4235C4.89567 18.6049 5.10749 18.7492 5.34125 18.8481C5.57501 18.9471 5.82608 18.9987 6.07992 19H14.9999C15.252 19 15.5017 18.9503 15.7347 18.8538C15.9676 18.7574 16.1793 18.6159 16.3575 18.4376C16.5358 18.2593 16.6773 18.0477 16.7737 17.8147C16.8702 17.5818 16.9199 17.3321 16.9199 17.08V15.27C16.9199 15.0711 16.9989 14.8803 17.1396 14.7397C17.2802 14.599 17.471 14.52 17.6699 14.52C17.8688 14.52 18.0596 14.599 18.2002 14.7397C18.3409 14.8803 18.4199 15.0711 18.4199 15.27V17.05C18.4199 17.4991 18.3314 17.9438 18.1596 18.3588C17.9877 18.7737 17.7358 19.1507 17.4182 19.4683C17.1006 19.7859 16.7236 20.0378 16.3087 20.2097C15.8937 20.3815 15.449 20.47 14.9999 20.47Z" fill="white"/>
<path d="M17.6292 8.76993C17.4361 8.76766 17.2511 8.69197 17.1118 8.55824C16.9725 8.42451 16.8893 8.24277 16.8792 8.04993C16.8641 7.74752 16.7763 7.45322 16.6231 7.19206C16.4698 6.9309 16.2558 6.71061 15.9992 6.54993C15.7201 6.37181 15.3998 6.2685 15.0692 6.24993C14.9707 6.24665 14.8738 6.224 14.7841 6.18327C14.6943 6.14255 14.6135 6.08455 14.5462 6.01258C14.4789 5.94062 14.4264 5.8561 14.3917 5.76384C14.3571 5.67159 14.3409 5.57342 14.3442 5.47493C14.3475 5.37644 14.3701 5.27956 14.4108 5.18982C14.4516 5.10008 14.5096 5.01924 14.5815 4.95192C14.6535 4.8846 14.738 4.83211 14.8303 4.79745C14.9225 4.76279 15.0207 4.74665 15.1192 4.74993C15.9719 4.78195 16.7811 5.13434 17.3854 5.73677C17.9897 6.3392 18.3446 7.14736 18.3792 7.99993C18.3832 8.09844 18.3678 8.19678 18.3337 8.28931C18.2997 8.38185 18.2478 8.46677 18.1809 8.53921C18.114 8.61166 18.0335 8.67021 17.944 8.71152C17.8545 8.75282 17.7577 8.77607 17.6592 8.77993L17.6292 8.76993Z" fill="white"/>
<path d="M12.9993 13.36H10.5293C10.3304 13.36 10.1396 13.281 9.99897 13.1403C9.85832 12.9997 9.7793 12.8089 9.7793 12.61V10.09C9.77947 9.89115 9.85861 9.70051 9.9993 9.56L14.9993 4.56C15.0682 4.48924 15.1507 4.433 15.2417 4.39461C15.3327 4.35621 15.4305 4.33643 15.5293 4.33643C15.6281 4.33643 15.7259 4.35621 15.8169 4.39461C15.9079 4.433 15.9904 4.48924 16.0593 4.56L16.9193 5.42C16.9939 5.49425 17.0521 5.58337 17.09 5.68158C17.1279 5.77978 17.1447 5.88487 17.1393 5.99C17.2444 5.98523 17.3493 6.00233 17.4474 6.04019C17.5455 6.07806 17.6347 6.13588 17.7093 6.21L18.5793 7.07C18.7197 7.21062 18.7986 7.40124 18.7986 7.6C18.7986 7.79875 18.7197 7.98937 18.5793 8.13L13.5793 13.13C13.5033 13.2057 13.4127 13.2651 13.313 13.3047C13.2133 13.3442 13.1065 13.363 12.9993 13.36ZM11.2393 11.86H12.6893L16.9993 7.57L16.6593 7.24C16.5862 7.16468 16.529 7.07538 16.4912 6.97743C16.4534 6.87949 16.4357 6.77492 16.4393 6.67C16.3342 6.67538 16.2291 6.65857 16.1309 6.62067C16.0327 6.58277 15.9435 6.52461 15.8693 6.45L15.5393 6.12L11.2793 10.4L11.2393 11.86Z" fill="white"/>
<path d="M18.0806 8.3201C17.8817 8.31993 17.691 8.2408 17.5505 8.10011L16.6806 7.24011C16.6075 7.16479 16.5503 7.07549 16.5125 6.97754C16.4747 6.8796 16.4569 6.77503 16.4605 6.67011C16.3554 6.67549 16.2504 6.65868 16.1522 6.62078C16.054 6.58288 15.9648 6.52472 15.8906 6.45011L15.0006 5.59011C14.8601 5.44948 14.7812 5.25886 14.7812 5.0601C14.7812 4.86135 14.8601 4.67073 15.0006 4.53011L17.5505 2.0001C17.6911 1.85965 17.8818 1.78076 18.0806 1.78076C18.2793 1.78076 18.47 1.85965 18.6106 2.0001L21.1106 4.51011C21.1814 4.57905 21.2376 4.66147 21.276 4.75249C21.3144 4.84352 21.3341 4.94131 21.3341 5.0401C21.3341 5.1389 21.3144 5.23669 21.276 5.32772C21.2376 5.41874 21.1814 5.50116 21.1106 5.57011L18.6106 8.10011C18.4701 8.2408 18.2794 8.31993 18.0806 8.3201ZM17.2105 6.00011C17.3093 5.99788 17.4074 6.01629 17.4987 6.05417C17.59 6.09206 17.6724 6.14857 17.7406 6.2201L18.0806 6.55011L19.5206 5.1001L18.0806 3.6101L16.6206 5.0601L16.9506 5.3901C17.0252 5.46436 17.0834 5.55348 17.1213 5.65169C17.1592 5.74989 17.176 5.85498 17.1706 5.96011L17.2105 6.00011Z" fill="white"/>
</svg>
