<svg width="24" height="24" viewBox="0 0 24 24" fill="none" xmlns="http://www.w3.org/2000/svg">
<path d="M12 16.4C13.1364 16.4 14.1023 16.0208 14.8977 15.2625C15.6932 14.5042 16.0909 13.5833 16.0909 12.5C16.0909 11.4167 15.6932 10.4958 14.8977 9.7375C14.1023 8.97917 13.1364 8.6 12 8.6C10.8636 8.6 9.89773 8.97917 9.10227 9.7375C8.30682 10.4958 7.90909 11.4167 7.90909 12.5C7.90909 13.5833 8.30682 14.5042 9.10227 15.2625C9.89773 16.0208 10.8636 16.4 12 16.4ZM12 14.84C11.3182 14.84 10.7386 14.6125 10.2614 14.1575C9.78409 13.7025 9.54545 13.15 9.54545 12.5C9.54545 11.85 9.78409 11.2975 10.2614 10.8425C10.7386 10.3875 11.3182 10.16 12 10.16C12.6818 10.16 13.2614 10.3875 13.7386 10.8425C14.2159 11.2975 14.4545 11.85 14.4545 12.5C14.4545 13.15 14.2159 13.7025 13.7386 14.1575C13.2614 14.6125 12.6818 14.84 12 14.84ZM12 19C9.78788 19 7.77273 18.4114 5.95455 17.2342C4.13636 16.0569 2.81818 14.4789 2 12.5C2.81818 10.5211 4.13636 8.94306 5.95455 7.76583C7.77273 6.58861 9.78788 6 12 6C14.2121 6 16.2273 6.58861 18.0455 7.76583C19.8636 8.94306 21.1818 10.5211 22 12.5C21.1818 14.4789 19.8636 16.0569 18.0455 17.2342C16.2273 18.4114 14.2121 19 12 19ZM12 17.2667C13.7121 17.2667 15.2841 16.8369 16.7159 15.9775C18.1477 15.1181 19.2424 13.9589 20 12.5C19.2424 11.0411 18.1477 9.88194 16.7159 9.0225C15.2841 8.16306 13.7121 7.73333 12 7.73333C10.2879 7.73333 8.71591 8.16306 7.28409 9.0225C5.85227 9.88194 4.75758 11.0411 4 12.5C4.75758 13.9589 5.85227 15.1181 7.28409 15.9775C8.71591 16.8369 10.2879 17.2667 12 17.2667Z" fill="#214765"/>
</svg>
