<svg width="410" height="411" viewBox="0 0 410 411" fill="none" xmlns="http://www.w3.org/2000/svg">
<path d="M12 300.485V362.07C12 381.953 28.1178 398.07 48 398.07H111.47V410.07H48L47.3799 410.066C21.3624 409.737 0.333312 388.708 0.00390625 362.69L0 362.07V300.485H12ZM410 362.07L409.996 362.69C409.667 388.708 388.638 409.737 362.62 410.066L362 410.07H300.41V398.07H362C381.882 398.07 398 381.953 398 362.07V300.485H410V362.07ZM362.62 0.0742188C388.844 0.406239 410 21.7677 410 48.0703V111.545H398V48.0703C398 28.1881 381.882 12.0703 362 12.0703H300.41V0.0703125H362L362.62 0.0742188ZM111.47 12.0703H48C28.1178 12.0703 12 28.1881 12 48.0703V111.545H0V48.0703C1.66221e-06 21.7677 21.156 0.406238 47.3799 0.0742188L48 0.0703125H111.47V12.0703Z" fill="#366E88"/>
</svg>
