<svg width="28" height="28" viewBox="0 0 28 28" fill="none" xmlns="http://www.w3.org/2000/svg">
<g clip-path="url(#clip0_83_20220)">
<mask id="mask0_83_20220" style="mask-type:luminance" maskUnits="userSpaceOnUse" x="0" y="0" width="28" height="28">
<path d="M27.483 11.4545H14.4375V16.8636H21.9466C21.2466 20.3 18.3193 22.2727 14.4375 22.2727C9.85569 22.2727 6.16477 18.5818 6.16477 14C6.16477 9.41819 9.85569 5.72727 14.4375 5.72727C16.4102 5.72727 18.1921 6.42727 19.5921 7.57273L23.6648 3.5C21.183 1.33636 18.0011 0 14.4375 0C6.67387 0 0.4375 6.23637 0.4375 14C0.4375 21.7636 6.67387 28 14.4375 28C21.4375 28 27.8011 22.9091 27.8011 14C27.8011 13.1727 27.6739 12.2818 27.483 11.4545Z" fill="white"/>
</mask>
<g mask="url(#mask0_83_20220)">
<path d="M-0.835938 22.2725V5.72705L9.98225 13.9998L-0.835938 22.2725Z" fill="#FBBC05"/>
</g>
<mask id="mask1_83_20220" style="mask-type:luminance" maskUnits="userSpaceOnUse" x="0" y="0" width="28" height="28">
<path d="M27.483 11.4545H14.4375V16.8636H21.9466C21.2466 20.3 18.3193 22.2727 14.4375 22.2727C9.85569 22.2727 6.16477 18.5818 6.16477 14C6.16477 9.41819 9.85569 5.72727 14.4375 5.72727C16.4102 5.72727 18.1921 6.42727 19.5921 7.57273L23.6648 3.5C21.183 1.33636 18.0011 0 14.4375 0C6.67387 0 0.4375 6.23637 0.4375 14C0.4375 21.7636 6.67387 28 14.4375 28C21.4375 28 27.8011 22.9091 27.8011 14C27.8011 13.1727 27.6739 12.2818 27.483 11.4545Z" fill="white"/>
</mask>
<g mask="url(#mask1_83_20220)">
<path d="M-0.835938 5.72705L9.98225 13.9998L14.4368 10.118L29.7095 7.63614V-1.27295H-0.835938V5.72705Z" fill="#EA4335"/>
</g>
<mask id="mask2_83_20220" style="mask-type:luminance" maskUnits="userSpaceOnUse" x="0" y="0" width="28" height="28">
<path d="M27.483 11.4545H14.4375V16.8636H21.9466C21.2466 20.3 18.3193 22.2727 14.4375 22.2727C9.85569 22.2727 6.16477 18.5818 6.16477 14C6.16477 9.41819 9.85569 5.72727 14.4375 5.72727C16.4102 5.72727 18.1921 6.42727 19.5921 7.57273L23.6648 3.5C21.183 1.33636 18.0011 0 14.4375 0C6.67387 0 0.4375 6.23637 0.4375 14C0.4375 21.7636 6.67387 28 14.4375 28C21.4375 28 27.8011 22.9091 27.8011 14C27.8011 13.1727 27.6739 12.2818 27.483 11.4545Z" fill="white"/>
</mask>
<g mask="url(#mask2_83_20220)">
<path d="M-0.835938 22.2725L18.255 7.63614L23.2823 8.27251L29.7095 -1.27295V29.2725H-0.835938V22.2725Z" fill="#34A853"/>
</g>
<mask id="mask3_83_20220" style="mask-type:luminance" maskUnits="userSpaceOnUse" x="0" y="0" width="28" height="28">
<path d="M27.483 11.4545H14.4375V16.8636H21.9466C21.2466 20.3 18.3193 22.2727 14.4375 22.2727C9.85569 22.2727 6.16477 18.5818 6.16477 14C6.16477 9.41819 9.85569 5.72727 14.4375 5.72727C16.4102 5.72727 18.1921 6.42727 19.5921 7.57273L23.6648 3.5C21.183 1.33636 18.0011 0 14.4375 0C6.67387 0 0.4375 6.23637 0.4375 14C0.4375 21.7636 6.67387 28 14.4375 28C21.4375 28 27.8011 22.9091 27.8011 14C27.8011 13.1727 27.6739 12.2818 27.483 11.4545Z" fill="white"/>
</mask>
<g mask="url(#mask3_83_20220)">
<path d="M29.7102 29.2725L9.98296 13.9998L7.4375 12.0907L29.7102 5.72705V29.2725Z" fill="#4285F4"/>
</g>
</g>
<defs>
<clipPath id="clip0_83_20220">
<rect width="28" height="28" fill="white"/>
</clipPath>
</defs>
</svg>
