<svg width="31" height="32" viewBox="0 0 31 32" fill="none" xmlns="http://www.w3.org/2000/svg">
<path d="M3.67726 13.0156C2.87763 13.0156 2.20951 12.875 1.67292 12.5938C1.13632 12.3125 0.731243 11.8802 0.457685 11.2969C0.184126 10.7031 0.0315644 9.9375 0 9L2.41468 8.64063C2.4252 9.18229 2.47255 9.61979 2.55672 9.95313C2.65141 10.2865 2.77767 10.526 2.93549 10.6719C3.10384 10.8177 3.30375 10.8906 3.53522 10.8906C3.82982 10.8906 4.01921 10.7917 4.10338 10.5938C4.19807 10.3958 4.24542 10.1875 4.24542 9.96875C4.24542 9.44792 4.11916 9.01042 3.86665 8.65625C3.61413 8.29167 3.27218 7.92708 2.8408 7.5625L1.73605 6.60937C1.25206 6.20313 0.841719 5.74479 0.505031 5.23438C0.178865 4.71354 0.0157822 4.07292 0.0157822 3.3125C0.0157822 2.23958 0.336688 1.42188 0.978498 0.859375C1.62031 0.286458 2.49359 0 3.59835 0C4.28225 0 4.82936 0.114583 5.2397 0.34375C5.66056 0.572917 5.9762 0.875 6.18663 1.25C6.40759 1.61458 6.55489 2.00521 6.62854 2.42188C6.71271 2.82813 6.76006 3.21875 6.77058 3.59375L4.34011 3.89063C4.32959 3.51563 4.30329 3.19271 4.2612 2.92188C4.22964 2.64063 4.15599 2.42708 4.04025 2.28125C3.92451 2.125 3.74565 2.04687 3.50365 2.04687C3.24062 2.04687 3.04597 2.15625 2.91971 2.375C2.80398 2.59375 2.74611 2.8125 2.74611 3.03125C2.74611 3.5 2.85658 3.88542 3.07754 4.1875C3.30901 4.47917 3.60887 4.78646 3.97712 5.10938L5.03453 6.03125C5.59217 6.5 6.06038 7.03125 6.43915 7.625C6.82845 8.21875 7.02309 8.95313 7.02309 9.82813C7.02309 10.4219 6.88631 10.9635 6.61275 11.4531C6.3392 11.9323 5.9499 12.3125 5.44487 12.5938C4.95036 12.875 4.36116 13.0156 3.67726 13.0156Z" fill="url(#paint0_linear_84_24007)"/>
<path d="M8.12563 12.8281L10.5403 0.171875H13.7599L16.143 12.8281H13.5389L13.1128 10.1562H11.2347L10.7928 12.8281H8.12563ZM11.4872 8.48438H12.8445L12.1659 3.54688L11.4872 8.48438Z" fill="url(#paint1_linear_84_24007)"/>
<path d="M17.9072 12.8281V0.171875H23.4309V2.0625H20.7322V5.25H23.0837V7.20313H20.7322V12.8281H17.9072Z" fill="url(#paint2_linear_84_24007)"/>
<path d="M25.2237 12.8281V0.171875H30.9684V2.07813H28.0487V5.21875H30.274V7.15625H28.0487V10.9375H31V12.8281H25.2237Z" fill="url(#paint3_linear_84_24007)"/>
<path d="M3.83508 32C3.03545 32 2.36733 31.8594 1.83074 31.5781C1.29414 31.2969 0.889066 30.8646 0.615507 30.2813C0.341948 29.6875 0.189387 28.9219 0.157822 27.9844L2.5725 27.625C2.58302 28.1667 2.63037 28.6042 2.71454 28.9375C2.80924 29.2708 2.93549 29.5104 3.09332 29.6563C3.26166 29.8021 3.46157 29.875 3.69304 29.875C3.98764 29.875 4.17703 29.776 4.2612 29.5781C4.3559 29.3802 4.40324 29.1719 4.40324 28.9531C4.40324 28.4323 4.27698 27.9948 4.02447 27.6406C3.77195 27.276 3.43 26.9115 2.99862 26.5469L1.89387 25.5938C1.40988 25.1875 0.999541 24.7292 0.662854 24.2188C0.336688 23.6979 0.173604 23.0573 0.173604 22.2969C0.173604 21.224 0.49451 20.4063 1.13632 19.8438C1.77813 19.2708 2.65141 18.9844 3.75617 18.9844C4.44007 18.9844 4.98718 19.099 5.39752 19.3281C5.81838 19.5573 6.13403 19.8594 6.34446 20.2344C6.56541 20.599 6.71271 20.9896 6.78636 21.4062C6.87053 21.8125 6.91788 22.2031 6.9284 22.5781L4.49794 22.875C4.48741 22.5 4.46111 22.1771 4.41902 21.9063C4.38746 21.625 4.31381 21.4115 4.19807 21.2656C4.08234 21.1094 3.90347 21.0313 3.66148 21.0313C3.39844 21.0313 3.20379 21.1406 3.07754 21.3594C2.9618 21.5781 2.90393 21.7969 2.90393 22.0156C2.90393 22.4844 3.01441 22.8698 3.23536 23.1719C3.46683 23.4635 3.76669 23.7708 4.13494 24.0937L5.19235 25.0156C5.74999 25.4844 6.2182 26.0156 6.59697 26.6094C6.98627 27.2031 7.18091 27.9375 7.18091 28.8125C7.18091 29.4063 7.04414 29.9479 6.77058 30.4375C6.49702 30.9167 6.10772 31.2969 5.60269 31.5781C5.10818 31.8594 4.51898 32 3.83508 32Z" fill="url(#paint4_linear_84_24007)"/>
<path d="M9.03804 31.8125V19.1562H11.8631V31.8125H9.03804Z" fill="url(#paint5_linear_84_24007)"/>
<path d="M17.5728 32C16.689 32 15.9893 31.8177 15.4737 31.4531C14.9687 31.0885 14.6057 30.5781 14.3848 29.9219C14.1743 29.2552 14.0691 28.4896 14.0691 27.625V23.375C14.0691 22.4792 14.1849 21.7031 14.4163 21.0469C14.6478 20.3906 15.0424 19.8854 15.6 19.5312C16.1682 19.1667 16.9362 18.9844 17.9042 18.9844C18.8511 18.9844 19.5929 19.1406 20.1295 19.4531C20.6766 19.7656 21.0659 20.1979 21.2974 20.75C21.5289 21.3021 21.6446 21.9479 21.6446 22.6875V23.5H18.8827V22.4688C18.8827 22.1979 18.8617 21.9479 18.8196 21.7188C18.788 21.4896 18.7038 21.3073 18.5671 21.1719C18.4408 21.026 18.2304 20.9531 17.9358 20.9531C17.6306 20.9531 17.4097 21.0365 17.2729 21.2031C17.1361 21.3594 17.0467 21.5573 17.0046 21.7969C16.973 22.0365 16.9573 22.2865 16.9573 22.5469V28.4063C16.9573 28.6875 16.9836 28.9531 17.0362 29.2031C17.0993 29.4427 17.2045 29.6406 17.3518 29.7969C17.5096 29.9427 17.7306 30.0156 18.0147 30.0156C18.3093 30.0156 18.5355 29.9375 18.6933 29.7813C18.8511 29.625 18.9616 29.4219 19.0247 29.1719C19.0879 28.9219 19.1194 28.6563 19.1194 28.375V26.8906H17.9673V25.25H21.6604V31.8125H19.7981L19.6402 30.7656C19.4719 31.1198 19.2246 31.4167 18.8985 31.6563C18.5723 31.8854 18.1304 32 17.5728 32Z" fill="url(#paint6_linear_84_24007)"/>
<path d="M23.9019 31.8125V19.1562H25.8905L28.5104 25.25V19.1562H30.8461V31.8125H28.9365L26.3166 25.25V31.8125H23.9019Z" fill="url(#paint7_linear_84_24007)"/>
<path d="M12.8625 16.0156L15.506 14.2969L18.1496 16.0156L15.506 17.7344L12.8625 16.0156Z" fill="url(#paint8_linear_84_24007)"/>
<defs>
<linearGradient id="paint0_linear_84_24007" x1="15.5" y1="0" x2="15.5" y2="30.5402" gradientUnits="userSpaceOnUse">
<stop offset="0.484375" stop-color="#214765"/>
</linearGradient>
<linearGradient id="paint1_linear_84_24007" x1="15.5" y1="0" x2="15.5" y2="30.5402" gradientUnits="userSpaceOnUse">
<stop offset="0.484375" stop-color="#214765"/>
</linearGradient>
<linearGradient id="paint2_linear_84_24007" x1="15.5" y1="0" x2="15.5" y2="30.5402" gradientUnits="userSpaceOnUse">
<stop offset="0.484375" stop-color="#214765"/>
</linearGradient>
<linearGradient id="paint3_linear_84_24007" x1="15.5" y1="0" x2="15.5" y2="30.5402" gradientUnits="userSpaceOnUse">
<stop offset="0.484375" stop-color="#214765"/>
</linearGradient>
<linearGradient id="paint4_linear_84_24007" x1="15.5" y1="0" x2="15.5" y2="30.5402" gradientUnits="userSpaceOnUse">
<stop offset="0.484375" stop-color="#214765"/>
</linearGradient>
<linearGradient id="paint5_linear_84_24007" x1="15.5" y1="0" x2="15.5" y2="30.5402" gradientUnits="userSpaceOnUse">
<stop offset="0.484375" stop-color="#214765"/>
</linearGradient>
<linearGradient id="paint6_linear_84_24007" x1="15.5" y1="0" x2="15.5" y2="30.5402" gradientUnits="userSpaceOnUse">
<stop offset="0.484375" stop-color="#214765"/>
</linearGradient>
<linearGradient id="paint7_linear_84_24007" x1="15.5" y1="0" x2="15.5" y2="30.5402" gradientUnits="userSpaceOnUse">
<stop offset="0.484375" stop-color="#214765"/>
</linearGradient>
<linearGradient id="paint8_linear_84_24007" x1="15.5" y1="0" x2="15.5" y2="30.5402" gradientUnits="userSpaceOnUse">
<stop offset="0.484375" stop-color="#214765"/>
</linearGradient>
</defs>
</svg>
