<svg width="24" height="24" viewBox="0 0 19 18" fill="none" xmlns="http://www.w3.org/2000/svg">
  <path
    d="M17.7252 16.3745L12.7373 11.3867C13.8261 9.95552 14.3305 8.16425 14.1487 6.37527C13.9668 4.58629 13.1122 2.93316 11.7578 1.75035C10.4034 0.567534 8.65025 -0.0566615 6.85307 0.00404686C5.0559 0.0647553 3.34887 0.805835 2.07735 2.07735C0.805835 3.34887 0.0647553 5.0559 0.00404686 6.85307C-0.0566615 8.65025 0.567534 10.4034 1.75035 11.7578C2.93316 13.1122 4.58629 13.9668 6.37527 14.1487C8.16425 14.3305 9.95552 13.8261 11.3867 12.7373L16.3745 17.7252C16.5551 17.9014 16.7975 18 17.0498 18C17.3022 18 17.5445 17.9014 17.7252 17.7252C17.9041 17.546 18.0046 17.3031 18.0046 17.0498C18.0046 16.7966 17.9041 16.5537 17.7252 16.3745ZM1.96182 7.11619C1.96182 6.0963 2.26425 5.09931 2.83087 4.2513C3.3975 3.40329 4.20286 2.74235 5.14512 2.35206C6.08737 1.96176 7.12421 1.85964 8.1245 2.05861C9.1248 2.25758 10.0436 2.74871 10.7648 3.46988C11.486 4.19105 11.9771 5.10988 12.1761 6.11018C12.375 7.11047 12.2729 8.14731 11.8826 9.08956C11.4923 10.0318 10.8314 10.8372 9.98338 11.4038C9.13537 11.9704 8.13838 12.2729 7.11849 12.2729C5.75135 12.2712 4.44067 11.7274 3.47396 10.7607C2.50725 9.79401 1.96344 8.48333 1.96182 7.11619Z"
    fill="#fff" />
</svg>