<svg width="95" height="99" viewBox="0 0 95 99" fill="none" xmlns="http://www.w3.org/2000/svg">
<path d="M11.269 40.2671C8.81853 40.2671 6.77109 39.832 5.12668 38.9619C3.48227 38.0918 2.24091 36.7544 1.40258 34.9497C0.564257 33.1128 0.0967298 30.7441 0 27.8438L7.39983 26.7319C7.43207 28.4077 7.57717 29.7612 7.83511 30.7925C8.1253 31.8237 8.51222 32.5649 8.99587 33.0161C9.51176 33.4673 10.1244 33.6929 10.8337 33.6929C11.7365 33.6929 12.3169 33.3867 12.5749 32.7744C12.8651 32.1621 13.0102 31.5176 13.0102 30.8408C13.0102 29.2295 12.6232 27.876 11.8494 26.7803C11.0756 25.6523 10.0277 24.5244 8.70568 23.3965L5.32014 20.4478C3.83695 19.1909 2.57946 17.7729 1.54768 16.1938C0.548135 14.5825 0.0483648 12.6006 0.0483648 10.248C0.0483648 6.92871 1.03178 4.39893 2.99862 2.65869C4.96546 0.886231 7.64165 0 11.0272 0C13.123 0 14.7997 0.354492 16.0571 1.06348C17.3469 1.77246 18.3142 2.70703 18.959 3.86719C19.6361 4.99512 20.0876 6.20361 20.3133 7.49268C20.5712 8.74951 20.7163 9.95801 20.7485 11.1182L13.3003 12.0366C13.2681 10.8765 13.1875 9.87744 13.0585 9.03955C12.9618 8.16944 12.7361 7.50879 12.3814 7.05762C12.0267 6.57422 11.4786 6.33252 10.737 6.33252C9.93093 6.33252 9.33443 6.6709 8.94751 7.34766C8.59283 8.02442 8.41549 8.70117 8.41549 9.37793C8.41549 10.8281 8.75405 12.0205 9.43116 12.9551C10.1405 13.8574 11.0594 14.8081 12.188 15.8071L15.4284 18.6592C17.1373 20.1094 18.5721 21.7529 19.7329 23.5898C20.9259 25.4268 21.5224 27.6987 21.5224 30.4058C21.5224 32.2427 21.1032 33.9185 20.2649 35.4331C19.4266 36.9155 18.2336 38.0918 16.6859 38.9619C15.1705 39.832 13.3648 40.2671 11.269 40.2671Z" fill="url(#paint0_linear_62_8087)"/>
<path d="M24.9011 39.687L32.3009 0.531737H42.1674L49.4705 39.687H41.4903L40.1844 31.4209H34.429L33.0748 39.687H24.9011ZM35.2028 26.2485H39.3622L37.2825 10.9731L35.2028 26.2485Z" fill="url(#paint1_linear_62_8087)"/>
<path d="M54.8768 39.687V0.531737H71.8045V6.38086H63.5341V16.2422H70.7405V22.2847H63.5341V39.687H54.8768Z" fill="url(#paint2_linear_62_8087)"/>
<path d="M77.2984 39.687V0.531737H94.9033V6.4292H85.9558V16.1455H92.7752V22.1397H85.9558V33.8379H95V39.687H77.2984Z" fill="url(#paint3_linear_62_8087)"/>
<path d="M11.7527 99C9.30218 99 7.25473 98.5649 5.61033 97.6948C3.96592 96.8247 2.72456 95.4873 1.88623 93.6826C1.04791 91.8457 0.580379 89.4771 0.483649 86.5767L7.88348 85.4648C7.91572 87.1406 8.06082 88.4941 8.31876 89.5254C8.60895 90.5566 8.99587 91.2979 9.47952 91.749C9.99541 92.2002 10.608 92.4258 11.3174 92.4258C12.2202 92.4258 12.8006 92.1196 13.0585 91.5073C13.3487 90.895 13.4938 90.2505 13.4938 89.5737C13.4938 87.9624 13.1069 86.6089 12.333 85.5132C11.5592 84.3853 10.5113 83.2573 9.18933 82.1294L5.80379 79.1807C4.3206 77.9238 3.06311 76.5059 2.03133 74.9268C1.03178 73.3154 0.532014 71.3335 0.532014 68.981C0.532014 65.6616 1.51543 63.1318 3.48227 61.3916C5.44911 59.6191 8.1253 58.7329 11.5108 58.7329C13.6067 58.7329 15.2833 59.0874 16.5408 59.7964C17.8305 60.5054 18.7978 61.4399 19.4427 62.6001C20.1198 63.728 20.5712 64.9365 20.7969 66.2256C21.0549 67.4824 21.1999 68.6909 21.2322 69.8511L13.784 70.7695C13.7518 69.6094 13.6711 68.6104 13.5422 67.7725C13.4454 66.9024 13.2197 66.2417 12.8651 65.7905C12.5104 65.3071 11.9623 65.0654 11.2207 65.0654C10.4146 65.0654 9.81808 65.4038 9.43116 66.0806C9.07648 66.7573 8.89914 67.4341 8.89914 68.1108C8.89914 69.561 9.2377 70.7534 9.91481 71.688C10.6242 72.5903 11.5431 73.541 12.6716 74.54L15.9121 77.3921C17.6209 78.8423 19.0558 80.4858 20.2165 82.3228C21.4095 84.1597 22.006 86.4316 22.006 89.1387C22.006 90.9756 21.5869 92.6514 20.7485 94.166C19.9102 95.6484 18.7172 96.8247 17.1695 97.6948C15.6541 98.5649 13.8485 99 11.7527 99Z" fill="url(#paint4_linear_62_8087)"/>
<path d="M27.6972 98.4199V59.2646H36.3545V98.4199H27.6972Z" fill="url(#paint5_linear_62_8087)"/>
<path d="M53.852 99C51.1436 99 48.9994 98.436 47.4195 97.3081C45.8718 96.1802 44.7594 94.6011 44.0823 92.5708C43.4375 90.5083 43.115 88.1396 43.115 85.4648V72.3164C43.115 69.5449 43.4697 67.144 44.1791 65.1138C44.8884 63.0835 46.0975 61.5205 47.8064 60.4248C49.5476 59.2969 51.9013 58.7329 54.8677 58.7329C57.7696 58.7329 60.0428 59.2163 61.6872 60.1831C63.3638 61.1499 64.5568 62.4873 65.2662 64.1953C65.9755 65.9033 66.3302 67.9014 66.3302 70.1895V72.7031H57.8663V69.5127C57.8663 68.6748 57.8018 67.9014 57.6729 67.1924C57.5761 66.4834 57.3182 65.9194 56.899 65.5005C56.5121 65.0493 55.8673 64.8237 54.9644 64.8237C54.0294 64.8237 53.3523 65.0815 52.9331 65.5972C52.514 66.0806 52.2399 66.6929 52.1109 67.4341C52.0142 68.1753 51.9658 68.9487 51.9658 69.7544V87.8818C51.9658 88.752 52.0464 89.5737 52.2076 90.3472C52.4011 91.0884 52.7235 91.7007 53.1749 92.1841C53.6586 92.6353 54.3357 92.8608 55.2063 92.8608C56.1091 92.8608 56.8023 92.6191 57.286 92.1357C57.7696 91.6523 58.1082 91.0239 58.3016 90.2505C58.4951 89.4771 58.5918 88.6553 58.5918 87.7852V83.1929H55.0612V78.1172H66.3786V98.4199H60.6715L60.1879 95.1812C59.672 96.2769 58.9142 97.1953 57.9147 97.9365C56.9152 98.6455 55.5609 99 53.852 99Z" fill="url(#paint6_linear_62_8087)"/>
<path d="M73.2479 98.4199V59.2646H79.3419L87.3704 78.1172V59.2646H94.5284V98.4199H88.6763L80.6477 78.1172V98.4199H73.2479Z" fill="url(#paint7_linear_62_8087)"/>
<path d="M39.4174 49.5483L47.5185 44.231L55.6196 49.5483L47.5185 54.8657L39.4174 49.5483Z" fill="url(#paint8_linear_62_8087)"/>
<defs>
<linearGradient id="paint0_linear_62_8087" x1="47.5" y1="0" x2="47.5" y2="94.4838" gradientUnits="userSpaceOnUse">
<stop offset="0.484375" stop-color="#214765"/>
</linearGradient>
<linearGradient id="paint1_linear_62_8087" x1="47.5" y1="0" x2="47.5" y2="94.4838" gradientUnits="userSpaceOnUse">
<stop offset="0.484375" stop-color="#214765"/>
</linearGradient>
<linearGradient id="paint2_linear_62_8087" x1="47.5" y1="0" x2="47.5" y2="94.4838" gradientUnits="userSpaceOnUse">
<stop offset="0.484375" stop-color="#214765"/>
</linearGradient>
<linearGradient id="paint3_linear_62_8087" x1="47.5" y1="0" x2="47.5" y2="94.4838" gradientUnits="userSpaceOnUse">
<stop offset="0.484375" stop-color="#214765"/>
</linearGradient>
<linearGradient id="paint4_linear_62_8087" x1="47.5" y1="0" x2="47.5" y2="94.4838" gradientUnits="userSpaceOnUse">
<stop offset="0.484375" stop-color="#214765"/>
</linearGradient>
<linearGradient id="paint5_linear_62_8087" x1="47.5" y1="0" x2="47.5" y2="94.4838" gradientUnits="userSpaceOnUse">
<stop offset="0.484375" stop-color="#214765"/>
</linearGradient>
<linearGradient id="paint6_linear_62_8087" x1="47.5" y1="0" x2="47.5" y2="94.4838" gradientUnits="userSpaceOnUse">
<stop offset="0.484375" stop-color="#214765"/>
</linearGradient>
<linearGradient id="paint7_linear_62_8087" x1="47.5" y1="0" x2="47.5" y2="94.4838" gradientUnits="userSpaceOnUse">
<stop offset="0.484375" stop-color="#214765"/>
</linearGradient>
<linearGradient id="paint8_linear_62_8087" x1="47.5" y1="0" x2="47.5" y2="94.4838" gradientUnits="userSpaceOnUse">
<stop offset="0.484375" stop-color="#214765"/>
</linearGradient>
</defs>
</svg>
