<svg width="249" height="48" viewBox="0 0 249 48" fill="none" xmlns="http://www.w3.org/2000/svg">
<path d="M13.6632 47.9425C10.6921 47.9425 8.20963 47.4245 6.21586 46.3885C4.22209 45.3525 2.717 43.7602 1.70057 41.6115C0.684135 39.4245 0.11728 36.6043 0 33.1511L8.97195 31.8273C9.01104 33.8226 9.18696 35.4341 9.49971 36.6619C9.85155 37.8897 10.3207 38.7722 10.9071 39.3094C11.5326 39.8465 12.2753 40.1151 13.1354 40.1151C14.23 40.1151 14.9337 39.7506 15.2465 39.0216C15.5983 38.2926 15.7742 37.5252 15.7742 36.7194C15.7742 34.801 15.3051 33.1895 14.3668 31.8849C13.4286 30.542 12.1581 29.199 10.5552 27.8561L6.45042 24.3453C4.65212 22.8489 3.12748 21.1607 1.87649 19.2806C0.664589 17.3621 0.0586401 15.0024 0.0586401 12.2014C0.0586401 8.2494 1.25099 5.23741 3.63569 3.16547C6.02039 1.05516 9.26515 0 13.37 0C15.911 0 17.9439 0.422063 19.4685 1.26619C21.0323 2.11031 22.2051 3.22302 22.987 4.60432C23.8079 5.94724 24.3552 7.38609 24.6289 8.92087C24.9416 10.4173 25.1175 11.8561 25.1566 13.2374L16.1261 14.3309C16.087 12.9496 15.9892 11.7602 15.8329 10.7626C15.7156 9.72662 15.4419 8.94005 15.0119 8.40288C14.5819 7.82734 13.9173 7.53957 13.0181 7.53957C12.0408 7.53957 11.3176 7.94245 10.8484 8.7482C10.4184 9.55396 10.2034 10.3597 10.2034 11.1655C10.2034 12.8921 10.6139 14.3118 11.4348 15.4245C12.2949 16.4988 13.4091 17.6307 14.7773 18.8201L18.7062 22.2158C20.7782 23.9425 22.5178 25.8993 23.9252 28.0863C25.3717 30.2734 26.0949 32.9784 26.0949 36.2015C26.0949 38.3885 25.5867 40.3837 24.5702 42.1871C23.5538 43.952 22.1074 45.3525 20.2309 46.3885C18.3935 47.4245 16.2042 47.9425 13.6632 47.9425Z" fill="url(#paint0_linear_62_8961)"/>
<path d="M30.1915 47.2518L39.1634 0.633092H51.126L59.9807 47.2518H50.305L48.7217 37.4101H41.7436L40.1016 47.2518H30.1915ZM42.6818 31.2518H47.7249L45.2033 13.0648L42.6818 31.2518Z" fill="url(#paint1_linear_62_8961)"/>
<path d="M66.5355 47.2518V0.633092H87.0596V7.59713H77.0321V19.3381H85.7695V26.5324H77.0321V47.2518H66.5355Z" fill="url(#paint2_linear_62_8961)"/>
<path d="M93.7208 47.2518V0.633092H115.066V7.65468H104.217V19.223H112.486V26.3597H104.217V40.2878H115.183V47.2518H93.7208Z" fill="url(#paint3_linear_62_8961)"/>
<path d="M148.638 48C145.667 48 143.185 47.482 141.191 46.446C139.197 45.4101 137.692 43.8177 136.676 41.6691C135.659 39.482 135.092 36.6619 134.975 33.2086L143.947 31.8849C143.986 33.8801 144.162 35.4916 144.475 36.7194C144.827 37.9472 145.296 38.8297 145.882 39.3669C146.508 39.9041 147.25 40.1727 148.11 40.1727C149.205 40.1727 149.909 39.8082 150.222 39.0791C150.573 38.3501 150.749 37.5827 150.749 36.777C150.749 34.8585 150.28 33.247 149.342 31.9424C148.404 30.5995 147.133 29.2566 145.53 27.9137L141.426 24.4029C139.627 22.9065 138.103 21.2182 136.852 19.3381C135.64 17.4197 135.034 15.0599 135.034 12.259C135.034 8.30694 136.226 5.29495 138.611 3.22301C140.995 1.1127 144.24 0.0575399 148.345 0.0575399C150.886 0.0575399 152.919 0.479603 154.444 1.32373C156.007 2.16785 157.18 3.28056 157.962 4.66186C158.783 6.00478 159.33 7.44363 159.604 8.97841C159.917 10.4748 160.093 11.9137 160.132 13.295L151.101 14.3885C151.062 13.0072 150.964 11.8177 150.808 10.8201C150.691 9.78416 150.417 8.99759 149.987 8.46042C149.557 7.88488 148.892 7.59711 147.993 7.59711C147.016 7.59711 146.293 7.99999 145.824 8.80574C145.393 9.6115 145.178 10.4173 145.178 11.223C145.178 12.9496 145.589 14.3693 146.41 15.482C147.27 16.5563 148.384 17.6882 149.752 18.8777L153.681 22.2734C155.753 24 157.493 25.9568 158.9 28.1439C160.347 30.3309 161.07 33.036 161.07 36.259C161.07 38.446 160.562 40.4412 159.545 42.2446C158.529 44.0096 157.082 45.4101 155.206 46.446C153.369 47.482 151.179 48 148.638 48Z" fill="url(#paint4_linear_62_8961)"/>
<path d="M167.97 47.3094V0.690632H178.467V47.3094H167.97Z" fill="url(#paint5_linear_62_8961)"/>
<path d="M199.682 48C196.398 48 193.798 47.3285 191.883 45.9856C190.006 44.6427 188.657 42.7626 187.836 40.3453C187.055 37.8897 186.664 35.0695 186.664 31.8849V16.2302C186.664 12.9304 187.094 10.0719 187.954 7.65467C188.814 5.2374 190.28 3.37649 192.352 2.07193C194.463 0.729003 197.317 0.0575399 200.913 0.0575399C204.432 0.0575399 207.188 0.63308 209.181 1.78416C211.214 2.93524 212.661 4.52757 213.521 6.56114C214.381 8.59471 214.811 10.9736 214.811 13.6978V16.6906H204.549V12.8921C204.549 11.8945 204.471 10.9736 204.314 10.1295C204.197 9.28536 203.884 8.6139 203.376 8.1151C202.907 7.57792 202.125 7.30934 201.031 7.30934C199.897 7.30934 199.076 7.61629 198.568 8.2302C198.059 8.80574 197.727 9.53476 197.571 10.4173C197.453 11.2997 197.395 12.2206 197.395 13.1798V34.7626C197.395 35.7986 197.493 36.777 197.688 37.6978C197.923 38.5803 198.314 39.3093 198.861 39.8849C199.447 40.4221 200.268 40.6906 201.324 40.6906C202.418 40.6906 203.259 40.4029 203.845 39.8273C204.432 39.2518 204.842 38.5036 205.077 37.5827C205.311 36.6619 205.429 35.6834 205.429 34.6475V29.1798H201.148V23.1367H214.87V47.3094H207.95L207.364 43.4532C206.738 44.7578 205.819 45.8513 204.608 46.7338C203.396 47.5779 201.754 48 199.682 48Z" fill="url(#paint6_linear_62_8961)"/>
<path d="M223.198 47.3094V0.690632H230.587L240.321 23.1367V0.690632H249V47.3094H241.905L232.17 23.1367V47.3094H223.198Z" fill="url(#paint7_linear_62_8961)"/>
<path d="M115.228 23.3094L125.05 16.9784L134.872 23.3094L125.05 29.6403L115.228 23.3094Z" fill="url(#paint8_linear_62_8961)"/>
<defs>
<linearGradient id="paint0_linear_62_8961" x1="124.5" y1="0" x2="124.5" y2="45.8103" gradientUnits="userSpaceOnUse">
<stop offset="0.484375" stop-color="#214765"/>
</linearGradient>
<linearGradient id="paint1_linear_62_8961" x1="124.5" y1="0" x2="124.5" y2="45.8103" gradientUnits="userSpaceOnUse">
<stop offset="0.484375" stop-color="#214765"/>
</linearGradient>
<linearGradient id="paint2_linear_62_8961" x1="124.5" y1="0" x2="124.5" y2="45.8103" gradientUnits="userSpaceOnUse">
<stop offset="0.484375" stop-color="#214765"/>
</linearGradient>
<linearGradient id="paint3_linear_62_8961" x1="124.5" y1="0" x2="124.5" y2="45.8103" gradientUnits="userSpaceOnUse">
<stop offset="0.484375" stop-color="#214765"/>
</linearGradient>
<linearGradient id="paint4_linear_62_8961" x1="124.5" y1="0" x2="124.5" y2="45.8103" gradientUnits="userSpaceOnUse">
<stop offset="0.484375" stop-color="#214765"/>
</linearGradient>
<linearGradient id="paint5_linear_62_8961" x1="124.5" y1="0" x2="124.5" y2="45.8103" gradientUnits="userSpaceOnUse">
<stop offset="0.484375" stop-color="#214765"/>
</linearGradient>
<linearGradient id="paint6_linear_62_8961" x1="124.5" y1="0" x2="124.5" y2="45.8103" gradientUnits="userSpaceOnUse">
<stop offset="0.484375" stop-color="#214765"/>
</linearGradient>
<linearGradient id="paint7_linear_62_8961" x1="124.5" y1="0" x2="124.5" y2="45.8103" gradientUnits="userSpaceOnUse">
<stop offset="0.484375" stop-color="#214765"/>
</linearGradient>
<linearGradient id="paint8_linear_62_8961" x1="124.5" y1="0" x2="124.5" y2="45.8103" gradientUnits="userSpaceOnUse">
<stop offset="0.484375" stop-color="#214765"/>
</linearGradient>
</defs>
</svg>
