<svg width="56" height="56" viewBox="0 0 56 56" fill="none" xmlns="http://www.w3.org/2000/svg">
<circle cx="28" cy="28" r="27.5" fill="#D3D4D6" stroke="#A2A3A6"/>
<path d="M35.1121 31.0831C33.7494 31.0831 32.3961 30.9057 31.0521 30.5511C29.7081 30.1777 28.5694 29.6551 27.6361 28.9831L29.4001 25.5111C30.1467 26.0524 31.0147 26.4817 32.0041 26.7991C32.9934 27.1164 33.9921 27.2751 35.0001 27.2751C36.1387 27.2751 37.0347 27.0511 37.6881 26.6031C38.3414 26.1551 38.6681 25.5391 38.6681 24.7551C38.6681 24.0084 38.3787 23.4204 37.8001 22.9911C37.2214 22.5617 36.2881 22.3471 35.0001 22.3471H32.9281V19.3511L38.3881 13.1631L38.8921 14.7871H28.6161V11.1471H42.3361V14.0871L36.9041 20.2751L34.6081 18.9591H35.9241C38.3321 18.9591 40.1521 19.5004 41.3841 20.5831C42.6161 21.6657 43.2321 23.0564 43.2321 24.7551C43.2321 25.8564 42.9427 26.8924 42.3641 27.8631C41.7854 28.8151 40.8987 29.5897 39.7041 30.1871C38.5094 30.7844 36.9787 31.0831 35.1121 31.0831Z" fill="white"/>
</svg>
