<svg width="56" height="56" viewBox="0 0 56 56" fill="none" xmlns="http://www.w3.org/2000/svg">
<circle cx="28" cy="28" r="26" fill="#367C88" stroke="#366E88" stroke-width="4"/>
<path d="M28.5881 30.7471V27.8071L36.1481 20.6671C36.7454 20.1257 37.1841 19.6404 37.4641 19.2111C37.7441 18.7817 37.9307 18.3897 38.0241 18.0351C38.1361 17.6804 38.1921 17.3537 38.1921 17.0551C38.1921 16.2711 37.9214 15.6737 37.3801 15.2631C36.8574 14.8337 36.0827 14.6191 35.0561 14.6191C34.2347 14.6191 33.4694 14.7777 32.7601 15.0951C32.0694 15.4124 31.4814 15.9071 30.9961 16.5791L27.6921 14.4511C28.4387 13.3311 29.4841 12.4444 30.8281 11.7911C32.1721 11.1377 33.7214 10.8111 35.4761 10.8111C36.9321 10.8111 38.2014 11.0537 39.2841 11.5391C40.3854 12.0057 41.2347 12.6684 41.8321 13.5271C42.4481 14.3857 42.7561 15.4124 42.7561 16.6071C42.7561 17.2417 42.6721 17.8764 42.5041 18.5111C42.3547 19.1271 42.0374 19.7804 41.5521 20.4711C41.0854 21.1617 40.3947 21.9364 39.4801 22.7951L33.2081 28.7031L32.3401 27.0511H43.4001V30.7471H28.5881Z" fill="white"/>
</svg>
