<svg width="83" height="83" viewBox="0 0 83 83" fill="none" xmlns="http://www.w3.org/2000/svg">
<circle cx="41.5" cy="41.5" r="39.5" fill="#367C88" stroke="#366E88" stroke-width="4"/>
<path d="M50.576 41.432C48.824 41.432 47.084 41.204 45.356 40.748C43.628 40.268 42.164 39.596 40.964 38.732L43.232 34.268C44.192 34.964 45.308 35.516 46.58 35.924C47.852 36.332 49.136 36.536 50.432 36.536C51.896 36.536 53.048 36.248 53.888 35.672C54.728 35.096 55.148 34.304 55.148 33.296C55.148 32.336 54.776 31.58 54.032 31.028C53.288 30.476 52.088 30.2 50.432 30.2H47.768V26.348L54.788 18.392L55.436 20.48H42.224V15.8H59.864V19.58L52.88 27.536L49.928 25.844H51.62C54.716 25.844 57.056 26.54 58.64 27.932C60.224 29.324 61.016 31.112 61.016 33.296C61.016 34.712 60.644 36.044 59.9 37.292C59.156 38.516 58.016 39.512 56.48 40.28C54.944 41.048 52.976 41.432 50.576 41.432Z" fill="white"/>
</svg>
