<svg width="28" height="28" viewBox="0 0 28 28" fill="none" xmlns="http://www.w3.org/2000/svg">
<circle cx="14" cy="14" r="13.5" fill="#D3D4D6" stroke="#A7A7A7"/>
<path d="M14.528 17.5V15.82L18.848 11.74C19.1893 11.4307 19.44 11.1533 19.6 10.908C19.76 10.6627 19.8667 10.4387 19.92 10.236C19.984 10.0333 20.016 9.84667 20.016 9.676C20.016 9.228 19.8613 8.88667 19.552 8.652C19.2533 8.40667 18.8107 8.284 18.224 8.284C17.7547 8.284 17.3173 8.37467 16.912 8.556C16.5173 8.73733 16.1813 9.02 15.904 9.404L14.016 8.188C14.4427 7.548 15.04 7.04133 15.808 6.668C16.576 6.29467 17.4613 6.108 18.464 6.108C19.296 6.108 20.0213 6.24667 20.64 6.524C21.2693 6.79067 21.7547 7.16933 22.096 7.66C22.448 8.15067 22.624 8.73733 22.624 9.42C22.624 9.78267 22.576 10.1453 22.48 10.508C22.3947 10.86 22.2133 11.2333 21.936 11.628C21.6693 12.0227 21.2747 12.4653 20.752 12.956L17.168 16.332L16.672 15.388H22.992V17.5H14.528Z" fill="white"/>
</svg>
