<svg width="83" height="83" viewBox="0 0 83 83" fill="none" xmlns="http://www.w3.org/2000/svg">
<circle cx="41.5" cy="41.5" r="39.5" fill="#367C88" stroke="#366E88" stroke-width="4"/>
<path d="M42.188 41V37.22L51.908 28.04C52.676 27.344 53.24 26.72 53.6 26.168C53.96 25.616 54.2 25.112 54.32 24.656C54.464 24.2 54.536 23.78 54.536 23.396C54.536 22.388 54.188 21.62 53.492 21.092C52.82 20.54 51.824 20.264 50.504 20.264C49.448 20.264 48.464 20.468 47.552 20.876C46.664 21.284 45.908 21.92 45.284 22.784L41.036 20.048C41.996 18.608 43.34 17.468 45.068 16.628C46.796 15.788 48.788 15.368 51.044 15.368C52.916 15.368 54.548 15.68 55.94 16.304C57.356 16.904 58.448 17.756 59.216 18.86C60.008 19.964 60.404 21.284 60.404 22.82C60.404 23.636 60.296 24.452 60.08 25.268C59.888 26.06 59.48 26.9 58.856 27.788C58.256 28.676 57.368 29.672 56.192 30.776L48.128 38.372L47.012 36.248H61.232V41H42.188Z" fill="white"/>
</svg>
