<svg width="28" height="28" viewBox="0 0 28 28" fill="none" xmlns="http://www.w3.org/2000/svg">
<circle cx="14" cy="14" r="13.5" fill="#D3D4D6" stroke="#A7A7A7"/>
<path d="M18.256 17.692C17.4773 17.692 16.704 17.5907 15.936 17.388C15.168 17.1747 14.5173 16.876 13.984 16.492L14.992 14.508C15.4187 14.8173 15.9147 15.0627 16.48 15.244C17.0453 15.4253 17.616 15.516 18.192 15.516C18.8427 15.516 19.3547 15.388 19.728 15.132C20.1013 14.876 20.288 14.524 20.288 14.076C20.288 13.6493 20.1227 13.3133 19.792 13.068C19.4613 12.8227 18.928 12.7 18.192 12.7H17.008V10.988L20.128 7.452L20.416 8.38H14.544V6.3H22.384V7.98L19.28 11.516L17.968 10.764H18.72C20.096 10.764 21.136 11.0733 21.84 11.692C22.544 12.3107 22.896 13.1053 22.896 14.076C22.896 14.7053 22.7307 15.2973 22.4 15.852C22.0693 16.396 21.5627 16.8387 20.88 17.18C20.1973 17.5213 19.3227 17.692 18.256 17.692Z" fill="white"/>
</svg>
