<svg width="108" height="108" viewBox="0 0 108 108" fill="none" xmlns="http://www.w3.org/2000/svg">
<circle cx="54" cy="54" r="53.5" fill="#F3F4F6" stroke="#D9D9D9"/>
<circle cx="54.5" cy="54.5" r="30" fill="#F4F4F4" stroke="#D9D9D9"/>
<path d="M38.7812 48.5156C40.251 52.3548 45.3226 53.9479 48.7734 51.0508L54.332 55.9902C56.8421 58.2204 60.6569 58.0309 62.9385 55.6055C64.0986 56.7204 65.8867 56.383 66.6924 55.2002V64.9258C66.6924 65.49 67.0397 65.9721 67.5322 66.1719C67.0176 66.5154 66.6788 67.1015 66.6787 67.7666C66.6787 67.9629 66.5199 68.1211 66.3242 68.1211H39.1348C38.9386 68.1209 38.7812 67.9621 38.7812 67.7666V48.5156ZM69.3809 63.6348C69.5019 63.7485 69.6431 63.8404 69.7998 63.9033C69.642 64.009 69.5008 64.1376 69.3809 64.2842V63.6348ZM40.7285 44.4668C40.7922 44.6244 40.8859 44.7664 41.001 44.8877H40.3486C40.4954 44.7674 40.6229 44.6251 40.7285 44.4668ZM42.9932 42.2061C43.0558 42.36 43.147 42.4989 43.2588 42.6182H42.6172C42.7617 42.4999 42.8884 42.3611 42.9932 42.2061Z" fill="#EAEAEA" stroke="#A7A7A7" stroke-width="1.56189"/>
<path d="M58.4062 49.8423C59.2228 49.8423 59.8887 50.5081 59.8887 51.3247C59.8886 52.1413 59.2228 52.8071 58.4062 52.8071C57.5896 52.8071 56.9239 52.1413 56.9238 51.3247C56.9238 50.5081 57.5896 49.8423 58.4062 49.8423Z" fill="#EAEAEA" stroke="#A7A7A7" stroke-width="1.56189"/>
</svg>
