<svg width="39" height="39" viewBox="0 0 39 39" fill="none" xmlns="http://www.w3.org/2000/svg">
<path d="M19.5 30.875C23.9873 30.875 27.625 27.2373 27.625 22.75C27.625 18.2627 23.9873 14.625 19.5 14.625C15.0127 14.625 11.375 18.2627 11.375 22.75C11.375 27.2373 15.0127 30.875 19.5 30.875Z" fill="#FEFEFE"/>
<path d="M7.26395 34.1245H31.7364C34.2389 34.1245 35.7989 31.4108 34.5477 29.2495L22.3114 8.10824C21.0602 5.94699 17.9402 5.94699 16.6889 8.10824L4.4527 29.2495C3.20145 31.4108 4.76145 34.1245 7.26395 34.1245ZM19.5002 22.7495C18.6064 22.7495 17.8752 22.0183 17.8752 21.1245V17.8745C17.8752 16.9808 18.6064 16.2495 19.5002 16.2495C20.3939 16.2495 21.1252 16.9808 21.1252 17.8745V21.1245C21.1252 22.0183 20.3939 22.7495 19.5002 22.7495ZM21.1252 29.2495H17.8752V25.9995H21.1252V29.2495Z" fill="#FB8620"/>
<path d="M7.26395 34.1245H31.7364C34.2389 34.1245 35.7989 31.4108 34.5477 29.2495L22.3114 8.10824C21.0602 5.94699 17.9402 5.94699 16.6889 8.10824L4.4527 29.2495C3.20145 31.4108 4.76145 34.1245 7.26395 34.1245ZM19.5002 22.7495C18.6064 22.7495 17.8752 22.0183 17.8752 21.1245V17.8745C17.8752 16.9808 18.6064 16.2495 19.5002 16.2495C20.3939 16.2495 21.1252 16.9808 21.1252 17.8745V21.1245C21.1252 22.0183 20.3939 22.7495 19.5002 22.7495ZM21.1252 29.2495H17.8752V25.9995H21.1252V29.2495Z" fill="#FB8620"/>
</svg>
