<svg width="20" height="20" viewBox="0 0 20 20" fill="none" xmlns="http://www.w3.org/2000/svg">
<path d="M1.77295 1.28825C2.40028 0.695892 3.36614 0.685557 4.00521 1.23779L4.1289 1.3558L10.0672 7.64323L16.3563 1.70492L16.4857 1.59424C17.1553 1.07913 18.1197 1.14505 18.7122 1.77246C19.3044 2.3998 19.3149 3.36571 18.7627 4.00472L18.6447 4.12842L12.3564 10.0667L18.2956 16.3558L18.4062 16.4852C18.9212 17.1548 18.8554 18.1192 18.228 18.7118C17.6008 19.3041 16.6348 19.3143 15.9958 18.7622L15.8721 18.6442L9.93294 12.356L3.64469 18.2951L3.5153 18.4058C2.84574 18.9209 1.88131 18.8548 1.28873 18.2275C0.696376 17.6002 0.686051 16.6343 1.23828 15.9953L1.35628 15.8716L7.64372 9.93246L1.7054 3.64421L1.59472 3.51481C1.07959 2.8452 1.14553 1.88081 1.77295 1.28825Z" fill="#214765"/>
</svg>
