<svg width="24" height="24" viewBox="0 0 24 24" fill="none" xmlns="http://www.w3.org/2000/svg">
<path d="M2.12676 1.5457C2.87955 0.834875 4.03859 0.822473 4.80547 1.48516L4.9539 1.62676L12.0799 9.17168L19.6268 2.0457L19.782 1.91289C20.5856 1.29475 21.7428 1.37386 22.4539 2.12676C23.1646 2.87956 23.1771 4.03866 22.5145 4.80547L22.3728 4.95391L14.827 12.0799L21.9539 19.6268L22.0867 19.782C22.7047 20.5856 22.6257 21.7429 21.8728 22.4539C21.1201 23.1647 19.961 23.177 19.1941 22.5145L19.0457 22.3729L11.9187 14.827L4.37285 21.9539L4.21758 22.0867C3.41411 22.7048 2.25679 22.6256 1.5457 21.8729C0.83487 21.1201 0.82248 19.961 1.48515 19.1941L1.62676 19.0457L9.17168 11.9188L2.0457 4.37285L1.91289 4.21758C1.29473 3.41405 1.37385 2.25678 2.12676 1.5457Z" fill="#367C88"/>
</svg>
